<?xml version="1.0" encoding="UTF-8" standalone="no"?>
<svg
   xmlns:dc="http://purl.org/dc/elements/1.1/"
   xmlns:cc="http://creativecommons.org/ns#"
   xmlns:rdf="http://www.w3.org/1999/02/22-rdf-syntax-ns#"
   xmlns:svg="http://www.w3.org/2000/svg"
   xmlns="http://www.w3.org/2000/svg"
   xmlns:sodipodi="http://sodipodi.sourceforge.net/DTD/sodipodi-0.dtd"
   xmlns:inkscape="http://www.inkscape.org/namespaces/inkscape"
   version="1.1"
   id="svg2"
   xml:space="preserve"
   width="1008.0267"
   height="377.88"
   viewBox="0 0 1008.0267 377.88"
   sodipodi:docname="kletter_kader_2fbg.eps"><metadata
     id="metadata8"><rdf:RDF><cc:Work
         rdf:about=""><dc:format>image/svg+xml</dc:format><dc:type
           rdf:resource="http://purl.org/dc/dcmitype/StillImage" /></cc:Work></rdf:RDF></metadata><defs
     id="defs6" /><sodipodi:namedview
     pagecolor="#ffffff"
     bordercolor="#666666"
     borderopacity="1"
     objecttolerance="10"
     gridtolerance="10"
     guidetolerance="10"
     inkscape:pageopacity="0"
     inkscape:pageshadow="2"
     inkscape:window-width="640"
     inkscape:window-height="480"
     id="namedview4" /><g
     id="g10"
     inkscape:groupmode="layer"
     inkscape:label="ink_ext_XXXXXX"
     transform="matrix(1.3333333,0,0,-1.3333333,0,377.88)"><g
       id="g12"
       transform="scale(0.1)"><path
         d="m 3055.33,1151.21 269.94,-154.608 82.52,-307.93 -307.99,-82.543 -276.64,155.98 -161.6,-273.398 -307.97,-82.539 -327.69,1222.978 159.31,276.01 275.96,-159.33 131.72,-491.57 230.02,385.36 307.97,82.5 82.11,-306.48 -157.66,-264.43"
         style="fill:#231f20;fill-opacity:1;fill-rule:nonzero;stroke:none"
         id="path14" /><path
         d="m 4340.84,1825.75 c 55.86,-202.45 110.2,-405.28 166.93,-617 L 4350.9,941.371 3734.96,776.332 3465.8,927.969 l -58.71,219.141 143.87,244.8 -255.32,147.44 162.31,276.75 614.43,164.64 268.46,-154.99"
         style="fill:#231f20;fill-opacity:1;fill-rule:nonzero;stroke:none"
         id="path16" /><path
         d="m 4931.25,2399.73 8.67,15.02 146.35,253.45 10.14,15.41 11.68,-7.98 262.42,-150.29 270.95,-1011.25 -152.42,-266.16 c -205.8,-55.16 -410.11,-109.92 -612.97,-164.28 -86.75,51.37 -174.19,99.36 -259.47,151.08 l -5.64,3.24 -163.85,611.49 152.44,266.19 389.41,104.36 -46.81,174.69 -10.9,5.03"
         style="fill:#231f20;fill-opacity:1;fill-rule:nonzero;stroke:none"
         id="path18" /><path
         d="m 5744.67,1543.35 c -55.84,202.46 -110.18,405.29 -166.92,617.01 l 156.9,267.38 615.94,165.02 269.14,-151.62 58.73,-219.13 -143.89,-244.83 255.31,-147.45 -162.3,-276.74 -614.44,-164.67 -268.47,155.03"
         style="fill:#231f20;fill-opacity:1;fill-rule:nonzero;stroke:none"
         id="path20" /><path
         d="m 7560.2,2674.09 -161.51,-279.71 -171.74,-46.01 107.91,-402.76 -148.2,-252.34 -41.45,-11.11 -251.58,145.25 -168.98,630.74 154.98,268.46 401.25,107.5 279.32,-160.02"
         style="fill:#231f20;fill-opacity:1;fill-rule:nonzero;stroke:none"
         id="path22" /><path
         d="m 2254.2,2071.41 89.96,-51.54 27.48,-102.62 -102.64,-27.5 -92.2,51.98 -53.87,-91.14 -102.64,-27.5 -109.22,407.64 53.09,91.97 91.99,-53.09 43.93,-163.87 76.62,128.45 102.66,27.5 27.38,-102.15 -52.54,-88.13"
         style="fill:#231f20;fill-opacity:1;fill-rule:nonzero;stroke:none"
         id="path24" /><path
         d="m 2446.89,2374.83 c 24.48,-91.31 66.25,-247.24 90.71,-338.55 l 0.53,-1.96 -49.11,-85.1 -13.82,-3.7 c -28.17,16.27 -56.2,32.01 -83.87,48.39 l -1.25,0.74 -0.53,1.96 c -24.47,91.31 -66.23,247.25 -91.21,340.52 l 53.67,93.73 94.36,-54.07 0.52,-1.96"
         style="fill:#231f20;fill-opacity:1;fill-rule:nonzero;stroke:none"
         id="path26" /><path
         d="m 2574.24,2047.7 c -18.61,67.46 -36.74,135.05 -55.65,205.65 l 52.29,89.11 205.31,54.99 89.69,-50.53 19.57,-73.03 -47.95,-81.64 85.08,-49.11 -54.08,-92.23 -204.79,-54.87 -89.47,51.66"
         style="fill:#231f20;fill-opacity:1;fill-rule:nonzero;stroke:none"
         id="path28" /><path
         d="m 3170,2208.91 -53.73,-91.62 -67.85,-19.24 -92.91,50.73 c -30.55,114 -60.96,227.5 -91.51,341.5 l 48.4,83.83 13.32,3.57 83.48,-49.01 c 12.03,-44.89 24.06,-89.81 36.25,-135.22 l 88.57,-50.32 -48.63,-84.95 84.61,-49.27"
         style="fill:#231f20;fill-opacity:1;fill-rule:nonzero;stroke:none"
         id="path30" /><path
         d="m 3407.89,2272.63 -53.75,-91.59 -67.83,-19.24 -92.93,50.72 c -30.55,114 -60.96,227.5 -91.5,341.49 l 48.39,83.84 13.34,3.58 83.48,-49.02 c 12.03,-44.91 24.06,-89.81 36.23,-135.22 l 88.59,-50.31 -48.65,-84.96 84.63,-49.29"
         style="fill:#231f20;fill-opacity:1;fill-rule:nonzero;stroke:none"
         id="path32" /><path
         d="m 3424.08,2275.41 c -18.61,67.46 -36.72,135.06 -55.62,205.63 l 52.26,89.14 205.32,54.98 89.68,-50.52 19.57,-73.03 -47.93,-81.63 85.08,-49.11 -54.1,-92.25 -204.79,-54.87 -89.47,51.66"
         style="fill:#231f20;fill-opacity:1;fill-rule:nonzero;stroke:none"
         id="path34" /><path
         d="m 4029.24,2652.27 -53.85,-93.21 -57.25,-15.34 35.96,-134.22 -49.37,-84.12 -13.81,-3.7 -83.87,48.42 -56.33,210.2 51.68,89.49 133.71,35.84 93.13,-53.36"
         style="fill:#231f20;fill-opacity:1;fill-rule:nonzero;stroke:none"
         id="path36" /><path
         d="m 2470.49,25.6211 59.78,165.4299 c 5.26,14.961 10.77,24.027 10.77,24.027 l -0.18,0.621 c 0,0 -6,-2.277 -16.19,-5 l -91.9,-24.648 -9.16,34.258 158.21,42.382 6.75,-25.293 -59.68,-165.7183 c -5.28,-14.9609 -10.78,-24.0391 -10.78,-24.0391 l 0.19,-0.6093 c 0,0 5.98,2.2304 16.17,5 l 98.09,26.2695 9.14,-34.2422 L 2477.32,0 l -6.83,25.6211"
         style="fill:#231f20;fill-opacity:1;fill-rule:nonzero;stroke:none"
         id="path38" /><path
         d="m 2748.4,177.73 c -6.33,21.141 -22.66,29.008 -39.9,24.379 -20.04,-5.347 -30.63,-21.449 -28.87,-42.789 z m -47.09,54.848 c 45.35,12.152 78.53,-14.34 89.69,-55.976 1.25,-4.614 3.12,-15.352 3.12,-15.352 l -108.55,-29.102 c 9.82,-26.757 34.9,-35.2378 58.34,-28.968 25.29,6.781 40.72,29.422 40.72,29.422 l 22.64,-24.012 c 0,0 -18.05,-28.9416 -57.21,-39.4494 -52.13,-13.9922 -94.57,14.961 -106.54,59.6874 -12.99,48.402 10.91,91.172 57.79,103.75"
         style="fill:#231f20;fill-opacity:1;fill-rule:nonzero;stroke:none"
         id="path40" /><path
         d="m 2804.41,256.211 37.64,10.098 4.86,-18.188 c 1.59,-5.859 2.27,-10.949 2.27,-10.949 l 0.64,0.129 c 3.21,15.078 15.28,39.14 47.04,47.679 34.86,9.321 59.47,-3.582 70.6,-45.218 l 27.13,-101.133 -38.87,-10.43 -24.96,93.129 c -5.12,19.141 -13.53,30.742 -33.55,25.391 -21,-5.629 -32.85,-23.008 -33.67,-43.399 -0.41,-7.07 0.87,-14.3 2.85,-21.699 l 19.33,-72.172 -39.18,-10.5076 -42.13,157.2696"
         style="fill:#231f20;fill-opacity:1;fill-rule:nonzero;stroke:none"
         id="path42" /><path
         d="m 3009.28,275.082 -20.33,-5.434 -8.36,31.133 21.29,5.699 -12.15,45.352 38.22,10.238 12.17,-45.351 35.76,9.613 8.36,-31.16 -35.78,-9.551 16.34,-61.09 c 6.96,-25.902 28.29,-24.179 39.09,-21.293 4.31,1.172 6.91,2.563 6.91,2.563 l 9.18,-34.262 c 0,0 -4.37,-2.129 -11.76,-4.117 -21.91,-5.863 -67.13,-11.051 -81.27,41.68 l -17.67,65.98"
         style="fill:#231f20;fill-opacity:1;fill-rule:nonzero;stroke:none"
         id="path44" /><path
         d="m 3109.77,338.051 37.63,10.07 7.29,-27.141 c 1.56,-5.832 2.36,-11.25 2.36,-11.25 l 0.61,0.149 c 1.05,24.422 15.05,47.351 39.12,53.793 3.71,0.976 7.26,1.289 7.26,1.289 l 10.34,-38.563 c 0,0 -4.18,-0.418 -9.42,-1.847 -16.66,-4.469 -32.91,-19.039 -34.02,-44.469 -0.43,-8.363 0.97,-17.273 3.45,-26.531 l 16.7,-62.262 -39.16,-10.508 -42.16,157.27"
         style="fill:#231f20;fill-opacity:1;fill-rule:nonzero;stroke:none"
         id="path46" /><path
         d="m 3315.92,253.48 c 20.66,5.5 29.49,31.711 24.37,50.821 l -0.97,3.711 -6.8,-1.801 c -20.04,-5.391 -51.66,-16.84 -45.8,-38.75 2.81,-10.512 13.14,-18.281 29.2,-13.981 z m 10.64,79.84 5.26,1.422 -0.61,2.168 c -5.51,20.672 -20.37,24.281 -37.66,19.649 -22.48,-6.008 -39.12,-26.68 -39.12,-26.68 l -22.3,24.101 c 0,0 19.16,25.942 56.48,35.942 41.33,11.09 71.49,-5.274 82.15,-45.082 l 26.35,-98.36 -36.07,-9.66 -3.48,12.942 c -1.64,6.179 -2.36,11.25 -2.36,11.25 l -0.61,-0.153 c 0.29,0.082 -4.57,-30.98 -40.37,-40.57 -28.07,-7.5 -58.07,3.281 -66.49,34.75 -13.37,49.961 53.25,71.441 78.83,78.281"
         style="fill:#231f20;fill-opacity:1;fill-rule:nonzero;stroke:none"
         id="path48" /><path
         d="m 3377.05,475.738 38.83,10.434 43.96,-164.063 c 4.63,-17.269 11.66,-20 21.82,-17.308 3.09,0.859 5.78,1.898 5.78,1.898 l 9.18,-34.238 c 0,0 -5.62,-2.5 -12.09,-4.223 -21.58,-5.777 -49.9,-7.418 -61.97,37.582 l -45.51,169.918"
         style="fill:#231f20;fill-opacity:1;fill-rule:nonzero;stroke:none"
         id="path50" /><path
         d="m 3517.52,328.98 c 0,0 21.89,-12.648 47.48,-5.781 11.11,2.973 19.36,10.473 16.88,19.731 -6.31,23.441 -81.94,-0.16 -95.51,50.429 -7.85,29.282 13.84,53.282 47.75,62.34 35.47,9.531 57.52,-3.73 57.52,-3.73 l -6.72,-32.867 c 0,0 -18.12,9.687 -42.19,3.238 -10.17,-2.731 -18.88,-9.692 -16.23,-19.531 5.96,-22.227 81.68,1.043 95.24,-49.547 7.01,-26.211 -10.18,-53.301 -47.48,-63.301 -39.18,-10.492 -67.29,6.758 -67.29,6.758 l 10.55,32.261"
         style="fill:#231f20;fill-opacity:1;fill-rule:nonzero;stroke:none"
         id="path52" /><path
         d="m 3695.74,499.02 c 41.02,10.98 66.74,-7.219 66.74,-7.219 l -10.08,-31.469 c 0,0 -20.9,12.598 -45.56,5.957 -29.01,-7.758 -41.94,-34.687 -34.75,-61.527 7.13,-26.524 32.34,-44.211 62.25,-36.211 26.52,7.109 40.89,32.461 40.89,32.461 l 22.54,-23.711 c 0,0 -15.64,-31.602 -57.89,-42.969 -52.13,-13.941 -95.25,13.828 -107.48,59.477 -11.99,44.703 11.25,91.25 63.34,105.211"
         style="fill:#231f20;fill-opacity:1;fill-rule:nonzero;stroke:none"
         id="path54" /><path
         d="m 3774.32,582.23 39.16,10.5 20.33,-75.898 c 2.07,-7.691 2.93,-13.434 2.93,-13.434 l 0.62,0.192 c 3.64,17.172 18.48,38.32 45.94,45.691 34.83,9.348 59.45,-3.582 70.61,-45.222 L 3981,402.93 l -38.85,-10.391 -24.94,93.121 c -5.16,19.102 -13.54,30.738 -33.58,25.352 -20.66,-5.5 -33.06,-23.391 -33.81,-44.102 -0.19,-6.64 1,-13.59 2.99,-20.969 l 19.34,-72.191 -39.18,-10.469 -58.65,218.949"
         style="fill:#231f20;fill-opacity:1;fill-rule:nonzero;stroke:none"
         id="path56" /><path
         d="m 3961.72,566.332 41.33,11.047 55.11,-95.938 c 4.42,-7.73 7.56,-15.82 7.56,-15.82 l 0.61,0.18 c 0,0 -0.69,8.73 -0.76,17.64 l 1.4,110.758 34.85,9.332 56.56,-95.25 c 4.41,-7.711 7.87,-15.699 7.87,-15.699 l 0.61,0.148 c 0,0 -0.98,8.668 -1.04,17.54 l -0.25,110.671 40.72,10.911 -5.68,-170.071 -43.48,-11.66 -50.55,82.629 c -4.7,7.68 -8.57,15.922 -8.57,15.922 l -0.63,-0.192 c 0,0 1.1,-8.992 0.84,-17.929 l -2.44,-96.86 -43.81,-11.742 -90.25,144.383"
         style="fill:#231f20;fill-opacity:1;fill-rule:nonzero;stroke:none"
         id="path58" /><path
         d="m 4347.09,606.109 c -6.33,21.133 -22.64,29.012 -39.9,24.36 -20.06,-5.348 -30.61,-21.43 -28.85,-42.778 z m -47.07,54.832 c 45.31,12.141 78.53,-14.339 89.69,-55.961 1.23,-4.628 3.12,-15.332 3.12,-15.332 l -108.55,-29.097 c 9.8,-26.801 34.9,-35.281 58.34,-28.992 25.29,6.761 40.7,29.421 40.7,29.421 l 22.62,-24.031 c 0,0 -18.01,-28.937 -57.17,-39.429 -52.11,-13.969 -94.59,14.941 -106.56,59.671 -12.99,48.43 10.93,91.188 57.81,103.75"
         style="fill:#231f20;fill-opacity:1;fill-rule:nonzero;stroke:none"
         id="path60" /><path
         d="m 4403.11,684.609 39.16,10.473 42.16,-157.273 -39.18,-10.508 z m -16.53,61.68 38.87,10.391 9.34,-34.848 -38.87,-10.391 -9.34,34.848"
         style="fill:#231f20;fill-opacity:1;fill-rule:nonzero;stroke:none"
         id="path62" /><path
         d="m 4511.19,567.5 46.92,107.379 c 4.68,10.859 9.35,18.07 9.35,18.07 l -0.14,0.602 c 0,0 -4.45,-1.832 -14.33,-4.492 l -66.29,-17.75 -8.93,33.3 133.85,35.86 5.7,-21.289 -46.93,-107.379 c -4.71,-10.903 -9.67,-18.192 -9.67,-18.192 l 0.16,-0.597 c 0,0 4.37,2.136 14.55,4.879 l 71.54,19.179 8.93,-33.281 -139.1,-37.289 -5.61,21"
         style="fill:#231f20;fill-opacity:1;fill-rule:nonzero;stroke:none"
         id="path64" /><path
         d="m 454.063,1681.1 6.777,-3.33 -5.156,-0.1 z m -9.239,132.42 -4.004,10 c 5.508,-7.2 8.575,-1.66 12.559,-1.34 z m -1.758,-38.79 c -10.625,2.05 -3.457,-8.63 -10.312,-10.44 -0.996,5.42 4.141,10.59 6.113,16.4 l -7.012,4.44 2.129,-0.41 c 2.364,-1.49 11.25,-5.26 9.082,-9.99 z m 17.637,88.75 c 0.801,0.86 2.422,2.69 0.078,4.18 4.492,-0.82 9.746,-0.64 13.809,0.02 l -0.84,0.8 c 0.586,2 2.93,0.57 5.039,0.23 -1.094,-0.42 -2.559,-0.75 -4.199,-1.03 l 8.183,-7.91 4.161,8.56 c -0.45,-7.14 -2.071,-18.29 -10.723,-15.78 -1.523,2.36 -1.035,9.51 -7.363,10.6 -1.856,-0.72 -0.118,-4.16 0.117,-5.18 -9.473,1.57 -9.668,2.66 -19.258,9.51 3.535,2.47 3.398,-1.63 10.996,-4 z m 25.801,65.65 5.215,-4.93 -7.344,1.24 z m 3.555,29.76 c 0.351,0.16 0.879,0.18 1.777,0.04 -0.664,0 -1.231,0 -1.777,-0.04 -2.227,-0.84 4.277,-6.75 -2.598,-7.41 -4.219,6.22 -2.266,7.26 2.598,7.41 z m 8.086,-99.65 c 0.312,-1.54 0.058,-3 -0.293,-4.45 0.136,-0.51 0.019,-1.01 -0.372,-1.41 0,-0.11 -0.039,-0.15 -0.058,-0.25 4.629,-2.19 8.301,-2.02 11.367,-0.93 0,0.01 0,0.05 -0.019,0.07 l 0.058,-0.04 c 3.692,1.31 6.524,4.01 8.887,5.88 -2.344,1.39 -2.481,6.6 -4.238,9.98 l 9.55,-1.56 c 3.536,-6.78 -0.117,-13.44 4.239,-19.32 3.652,6.66 6.23,-5.19 12.754,-2.09 -0.293,-8.24 -12.325,-9.41 -15.743,-7.83 4.473,-1.74 6.25,4.21 8.965,5.85 -9.629,6.71 -8.926,3.47 -15.39,0.41 l -9.024,8.68 c -0.019,-0.02 -0.019,-0.02 -0.039,-0.03 0.684,-3.19 0.566,-7.29 -3.144,-8.72 0.898,-4.32 5.371,-6.1 7.734,-7.48 l -5.586,-7.44 4.668,-2.88 c 1.445,-6.47 -3.086,-14.06 -4.863,-20.03 l 3.047,-2.25 c 1.601,-0.65 3.066,-1.51 4.179,-3.1 l -4.179,3.1 c -6.641,2.59 -16.211,-0.88 -20.625,8.31 -3.282,-3.6 -6.426,-3.07 -10.879,-1.24 l 2.675,1.59 c -0.253,1.09 -1.289,1.27 -2.324,1.45 l 6.426,3.06 c -3.574,2.74 -5.84,-1.12 -7.422,6.49 -0.488,-0.53 -1.172,-0.71 -1.933,-0.73 -0.215,-0.27 -0.43,-0.6 -0.743,-0.91 -0.605,0.39 -1.211,0.76 -1.797,1.09 -2.734,0.48 -5.605,1.27 -6.171,-1.81 -1.211,5.69 2.187,4.19 6.171,1.81 0.918,-0.17 1.778,-0.25 2.54,-0.18 4.179,5.69 -12.559,9.63 -2.461,11.87 -6.309,10.46 -7.168,0.18 -13.321,5.42 2.91,9.9 13.516,-6.52 16.25,4.47 l -2.109,0.43 c 0.332,3.01 5.605,2.12 8.301,3.73 l 1.406,-6.48 c 3.633,-2.72 10.762,-2.82 16.035,-3.7 0.156,4.13 -7.363,1.19 -4.922,3.94 -1.719,3.38 7.031,-4.28 9.981,-3.76 -4.551,5.78 -3.692,10.62 -9.473,14.43 -0.234,-0.06 -0.371,-0.2 -0.703,-0.27 l -4.707,2.87 c 2.363,-0.8 4.023,-1.7 5.41,-2.6 0.586,0.18 0.977,0.41 1.23,0.7 0.137,0.46 0.235,0.92 0.372,1.41 -0.567,1.85 -3.809,4.06 -5.821,4.42 -0.468,2.17 4.199,-0.71 6.114,0.03 z m 4.023,85.76 c 10.273,-4.72 13.945,5.89 20.352,8.97 4.335,3.38 7.695,-2.27 11.875,-7 -11.036,7.88 -9.122,-4.72 -18.36,-0.15 3.106,-4.57 7.578,-6.3 10.274,-4.7 -7.813,-5.91 -10.586,1.7 -17.559,-3.31 l 4.922,-3.88 c -0.664,-4.44 -4.942,-5.14 -7.324,-7.01 l 6.367,-2.04 -2.676,-1.62 -3.769,3.59 c -1.875,-1.53 -2.54,-3.77 0.976,-9.28 l -7.226,9.41 c 5.273,0.97 5.117,7.7 11.347,7.31 -4.492,1.38 -6.738,6.64 -9.199,9.71 z m 33.77,-81.58 -5.84,-1.13 -1.895,8.58 c 3.633,-2.63 4.121,-4.81 7.735,-7.45 z m -7.422,19.79 3.183,-0.51 c -5.039,-0.22 -8.613,-2.72 -12.597,-3.13 -0.118,-4.11 7.324,-5.31 3.789,-7.82 1.289,-1.27 -3.907,3.71 -6.582,2.08 0.937,5.05 5.839,10.42 10.195,13.85 -0.469,2.14 0.078,4.09 -2.266,5.5 -0.332,-3.02 -8.672,-6.81 -9.883,-1.47 9.883,1.47 3.536,2.5 7.129,9.15 3.907,-3.73 11.563,-6.03 14.493,-5.42 -9.024,-0.63 -2.891,-9.85 -7.461,-12.23 z m 6.757,81.86 c 3.008,-0.67 5.196,2.95 5.762,-2.8 -4.531,-2.75 -2.422,-0.02 -5.762,2.8 -0.742,0.16 -1.562,0.54 -2.421,1.5 1.074,-0.47 1.816,-1 2.421,-1.5 z m 12.403,-4.91 c 3.652,-6.68 -10.996,-1.3 -1.192,-7.93 l -6.894,3.11 z m 13.379,-117.33 c 7.422,-1.14 0.273,12.44 7.285,13.41 l 0.488,-2.15 c 0.84,0.94 7.93,-3.32 7.012,0.97 1.66,1.8 -0.156,5.21 -2.52,6.63 l 6.582,-1.03 c 1.407,0.34 3.868,-0.56 6.25,-0.93 l -6.25,0.93 c -0.468,-0.11 -0.839,-0.38 -1.015,-0.87 9.394,-9.77 10.586,3.56 18.066,2.41 -1.797,3.39 3.906,5.63 6.152,9.45 l -5.019,3.85 c 3.516,7.71 6.699,-2.05 9.785,2.68 l -0.469,-7.18 c 10.489,-0.55 -1.562,11.61 7.227,9.27 -4.16,4.75 0.117,4.09 -4.375,5.79 -0.899,8.4 15.195,-3.27 7.949,6.06 l 11.582,-9.96 c -8.496,5.41 -0.801,-10.21 -10.586,-3.59 5.449,-3.17 6.504,-8.11 9.492,-12.46 1.075,-0.75 2.227,-1.89 3.516,-3.93 -1.484,1.2 -2.598,2.52 -3.516,3.93 -5.722,3.66 -9.336,-7.42 -16.621,-2.01 0.957,-0.9 2.051,-2.38 3.418,-3.23 0.45,-0.14 0.938,-0.32 1.563,-0.63 -0.567,0.09 -1.074,0.31 -1.563,0.63 -4.004,1.2 -3.242,-3.25 -4.726,-4.87 8.203,-4.32 19.062,-1.78 24.336,2.64 l 0.703,-3.22 c 4.551,-1.7 5,5.51 0,9.35 7.441,-5.24 10.273,0.56 16.484,0.75 l -11.953,6.84 c 5.977,1.21 -3.027,8.71 6.074,5.35 1.446,2.88 -4.433,5.79 -7.383,5.17 l 1.973,4.9 c -3.965,3.67 -8.594,1.24 -9.844,6.58 7.598,-10.38 12.207,1.31 19.668,-3.86 -3.73,2.55 1.875,10.05 5.45,12.63 9.199,-12.67 -12.012,-2.44 -3.086,-13.98 3.398,3.6 9.004,1.81 7.539,8.16 3.593,2.6 4.609,-10.92 10.937,-6.65 -1.875,-0.74 -1.777,-5.95 -7.656,-3.02 l 5.664,-11.16 c -6.074,-5.33 -5.762,-11.61 -17.383,-10.96 9.961,-11.79 -9.57,-3.84 -2.617,-16.25 2.52,2.73 0.957,5.09 7.91,1.99 3.945,-3.65 1.192,-5.34 4.024,-8.87 10.937,-6.73 12.871,3.37 20.195,3.39 -3.574,6.73 -10.469,4.58 -12.852,5.96 l 11.641,-0.6 c 0.371,3.05 0.82,10.29 -4.277,9.94 8.125,0.96 2.539,2.74 4.296,8.72 -0.156,-4.12 5.762,-7.02 6.25,-9.15 15.547,-6.12 9.161,7.95 20.059,8.38 -0.351,0.18 -0.644,0.2 -1.035,0.45 l 2.168,-0.33 c -0.449,0.05 -0.723,-0.09 -1.133,-0.12 6.016,-2.58 5.625,4.81 10.332,6.17 l 5.762,-6.99 c 6.797,-1.97 10.488,4.06 9.453,8.37 -2.148,0.22 -5.352,-3.62 -3.984,-0.62 l 5.078,4.67 0.254,-5.3 c 20.039,-5.39 12.656,20.67 27.89,22.13 l -1.347,1.22 c 6.464,-0.72 2.714,-2.39 7.265,-3.95 -6.445,-3.49 -16.621,-0.27 -15.039,-10.98 5.606,-1.65 8.789,-10.46 11.485,-4.43 l -6.407,4.95 c 5.918,1.44 6.426,-9.13 11.27,-3.34 -4.024,3.6 -0.508,6.36 -7.481,9.21 4.571,-1.53 10.469,-0.09 13.145,-2.48 1.074,4.08 -5.098,3.73 -4.277,8.87 l 8.046,-7.15 4.864,5.76 c -5.664,-2.52 -10.489,8.49 -14.004,5.75 l 0.703,2.61 c -0.137,0.21 -0.293,0.28 -0.41,0.5 l 1.328,3 -0.918,-3.5 c 1.894,-2.64 4.629,-2.16 7.656,-2.5 9.141,-11.46 8.613,7.52 8.887,6.41 -0.879,-0.21 -1.992,0.1 -3.067,0.51 -1.093,-0.21 -2.304,0.06 -3.652,1.29 -1.152,1.59 1.133,-0.28 3.652,-1.29 4.395,0.8 7.11,9.33 10.313,-0.22 1.094,4.1 4.883,5.78 6.504,7.74 5.664,-5.84 -5.938,-5.69 -2.676,-10.24 6.973,1.43 11.582,4.05 14.004,11.16 4.355,-0.43 8.906,-6.13 12.187,-2.28 1.309,-5.35 -8.691,0.87 -4.921,-5.79 1.914,-3.37 5.41,-0.57 6.23,-3.78 -5.664,5.84 0.313,-5.28 -4.863,-5.79 l 4.59,-1.52 c -1.094,0.11 -3.262,0.32 -2.989,-0.79 -0.8,-5.16 5.118,-7.87 7.032,-6.99 l -4.082,-4.87 c 1.328,-1.18 4.043,-3.57 5.976,-2.71 l -9.004,-2.23 c -0.527,-2.08 3.262,-4.56 4.864,-6.83 l 3.261,3.87 1.641,-6.51 c -3.848,-5.93 -11.231,-14.7 -21.777,-18.9 13.066,-15.15 -15.118,-2.7 -3.165,-17.7 -5.117,-0.54 -12.187,-6.15 -17.851,-4.45 l 11.816,-5.56 -10.937,-0.3 c -0.137,-0.21 -0.176,-0.38 -0.391,-0.6 l -4.297,0.46 4.688,0.14 c 1.972,3.22 -4.434,3.28 -5.41,7.37 -4.883,-1.55 -3.028,-9.22 0.039,-18.04 l -12.95,5.81 0.704,-3.27 -5.801,7.04 -4.922,-1.47 7.91,-7.26 c 1.992,-4.83 -2.891,-7.95 -8.808,-6.68 -0.567,-0.04 -1.29,0.13 -2.618,0.82 0.899,-0.37 1.758,-0.68 2.618,-0.82 2.968,0.02 -2.696,7.97 5.781,6.05 -0.723,3.2 -4.61,1.58 -6.153,3.87 l 0.274,8.31 c -6.836,-7.47 -19.629,2.53 -26.035,-1.87 7.207,-4.05 3.34,-5.59 8.144,-8.35 1.563,-2.28 -5.918,2.87 -9.394,4.4 5.625,-11.18 -11.641,-4.75 -15.489,-6.34 l -2.324,5.56 -7.09,-1.13 c 8.086,-3.18 0.918,-4.31 5.157,-9.04 -2.149,0.28 -4.61,1.63 -6.27,-0.2 3.066,-4.6 4.531,-1.66 6.113,-3.99 -4.121,-0.48 -10.859,1.5 -10.078,7.65 -4.336,0.58 -10,2.42 -12.773,0.72 5.898,-2.94 -4.453,-3.59 -4.629,-7.72 0.176,-0.71 0.762,-1.38 1.367,-1.58 0.371,0.02 0.723,0.05 1.055,0.16 -0.332,-0.3 -0.664,-0.3 -1.055,-0.16 -3.457,-0.36 -6.621,3.92 -11.465,-0.13 l -4.609,6.88 c -1.27,-3.99 -4.629,-7.7 -2.012,-10.17 l -5,3.83 c -4.629,-7.63 -18.984,-8.75 -22.715,-15.53 3.653,-2.63 3.887,-3.71 7.539,-6.35 -7.754,2.21 -13.359,-10.64 -24.98,-4.72 l 4.238,4.64 c -1.308,1.23 -3.515,1.6 -4.551,1.69 7.305,-0.02 13.145,11.69 20.879,9.51 -5.234,4.99 -1.308,1.29 -4.375,5.86 4.766,-2.77 12.461,-4.9 10.274,0.64 -1.328,1.23 -2.852,3.54 -5,3.86 l 5.996,1.2 -10.137,3.59 c -2.832,3.52 -5.43,15.37 2.109,14.33 -4.023,8.84 -6.796,7.16 -13.593,5.03 -0.684,3.25 -3.067,4.65 0.039,9.34 -3.321,-3.62 -13.828,6.23 -20.957,10.4 1.367,-15.79 -17.051,-11.94 -18.262,-25.29 9.707,-6.72 -0.859,-0.92 2.93,-8.8 l -4.336,5.85 c -7.403,-4.07 -22.715,-4.82 -31.074,0.69 1.425,2.9 -4.356,5.87 5,5.47 l -4.825,8.05 -5.722,-2.22 c -5.489,1.91 1.484,2.86 -4.317,5.88 l 13.848,-2.2 -8.867,7.66 z m -1.094,73.49 -3.145,-1.59 c 1.719,-1.68 6.368,-4.23 4.883,-5.87 l -6.328,5.09 1.445,0.78 c -1.132,1.11 -0.996,1.83 3.145,1.59 z m 6.387,-14.35 1.172,-5.34 -3.907,3.74 z m 14.726,175.71 c -9.765,2.25 0.664,-6.29 -9.101,-3.96 5.547,-1.75 0.371,17.28 9.101,3.96 z m 3.281,24.94 c 2.989,-3.43 -1.796,-0.8 -1.23,-2.92 l 7.207,-3.98 -15.352,4.08 c 4.532,-1.65 5.645,5.36 9.375,2.82 z m 5.508,-42.48 4.512,-1.64 -3.828,-4.57 z m 5.84,-14.08 -10.742,-1.62 c 0,0 2.285,2.76 -0.664,6.21 3.887,0.53 7.383,-0.95 11.406,-4.59 z m 0,-97.25 c -3.535,-2.57 -15.996,6.47 -11.094,-5.52 l -5.82,7.05 c -0.351,-1.33 -1.719,-2.04 -2.48,-2.95 l -0.508,-1.76 c -0.176,0.75 0.097,1.27 0.508,1.76 l 2.832,9.69 -2.051,0.62 2.109,-0.32 -0.058,-0.3 10.214,-3.26 c 8.555,-1.28 -2.539,10.58 6.543,7.18 -4.843,-1.29 0.918,-8.3 -0.195,-12.19 z m 3.613,154.87 3.75,-2.48 -0.742,-0.9 3.242,-1.97 0.215,0.49 c 0.489,-0.3 0.957,-0.82 1.328,-1.43 l 3.789,-2.28 c -1.582,-2.98 -2.363,0.15 -3.789,2.28 l -1.543,0.94 -5.195,-12.96 c 1.309,0.46 2.891,-0.16 4.766,-2.71 l -4.805,2.62 0.039,0.09 c -2.109,-0.72 -3.34,-4.28 -3.301,-6.77 8.653,-9.3 3.555,5.63 10.782,1.66 l 2.753,-6.48 -1.328,1.19 c -1.25,-2.91 -0.957,-3.97 1.993,-7.38 0.781,-2.82 -3.321,-2.74 -6.856,-1.98 -0.644,0.02 -1.523,0.28 -2.578,0.73 -0.664,0.19 -1.25,0.43 -1.621,0.65 0.644,-0.35 1.074,-0.47 1.621,-0.65 0.762,-0.29 1.641,-0.52 2.578,-0.73 4.434,-0.19 1.016,7.55 3.516,10.54 -1.836,-0.77 -9.512,1.23 -5.196,-3.39 l 1.036,-0.14 c -10.84,2.43 -2.852,-11.85 -9.961,-11.98 -7.5,5.09 3.828,4.6 -4.707,9.82 l 6.445,6.29 c -1.543,9.36 -12.188,3.6 -16.504,8.24 1.562,1.85 5.762,1.31 8.633,1.93 1.328,-1.18 0.078,-4.08 2.207,-4.35 -1.934,3.29 10.996,0.63 6.113,7.38 l -6.933,2.93 c 8.945,0.84 10.664,5.72 10.253,10.8 z m 27.832,-15.68 2.715,-2.37 -7.715,1.98 z m 8.34,-72.7 c -0.508,-2.01 5.899,-6.91 1.211,-8.4 -5.097,3.73 -0.351,5.2 -1.211,8.4 z m 7.461,-5.06 c 5.664,-5.83 -1.797,-4.91 -3.613,-5.74 0.234,3.06 4.18,3.63 3.613,5.74 z m 3.614,42.83 4.16,1.39 c 2.363,-1.29 2.168,-4.32 1.64,-6.31 -2.207,0.94 -4.121,3.89 -5.8,4.92 l -2.442,-0.87 c 0.742,1.36 1.563,1.39 2.442,0.87 z m 0,-76.34 7.109,0.15 -5.996,-4.45 z m -6.973,7.09 2.617,1.71 3.203,-0.39 z m 12.598,-13.01 c 0.292,-1.17 -0.313,-3.44 -0.176,-5.03 0.937,-0.28 1.894,-0.73 2.851,-1.49 -2.129,-0.69 -2.754,0.17 -2.851,1.49 -7.949,2.21 -14.766,-11.48 -14.864,-0.31 2.051,3.89 10,4.95 15.04,5.34 z m 12.968,44.95 c -0.801,-0.35 -1.504,-0.93 -1.933,-1.71 0.937,-1.51 5.136,-3.44 0.41,-4.3 -1.113,1.94 -0.977,3.3 -0.41,4.3 -0.43,0.7 -0.235,1.32 1.933,1.71 z m 7.071,-113.85 9.472,-0.28 c -1.172,-3.92 -7.07,-1.11 -9.472,0.28 z m 1.308,-42.55 -5.898,2.93 c 1.093,-0.15 1.445,2.91 3.847,1.51 1.329,-1.2 1.582,-2.29 2.051,-4.44 z m -0.195,33.17 -7.481,5.11 9.141,-3.3 z m 28.476,72.5 c -0.351,0.93 0.254,1.58 3.008,1.53 -1.074,-0.24 -2.207,-0.77 -3.008,-1.53 1.016,-2.6 9.532,-7.52 0.899,-6.53 -2.754,2.97 -2.324,5.16 -0.899,6.53 z m -5.507,-89.83 c 1.875,2.33 3.398,5.19 4.511,7.34 -0.019,-5.74 -1.953,-7.38 -4.511,-7.34 -3.184,-3.86 -7.403,-6.27 -12.364,-1.7 -2.324,10.3 6.602,1.82 12.364,1.7 z m -28.106,163.86 c -5.879,2.74 -5.332,15.97 -12.402,11.73 -0.586,2.17 -2.52,5.43 0.41,6.07 7.09,-11.05 12.676,2.6 20.019,-5.43 -4.257,11.76 10.508,6.94 9.239,15.28 -3.34,8.54 12.07,-2.41 12.773,2.63 -3.183,-3.71 5.957,-6.81 3.828,-6.59 -5.058,-0.44 -9.902,2.19 -15.41,-0.28 1.621,-2.21 1.485,-9.34 5.43,-4.71 l -1.367,1.17 8.828,-2.07 -1.309,-2.86 c 1.953,-3.31 7.285,-3.9 8.106,-2.98 -1.68,2.24 0.312,10.21 -6.328,7.91 8.984,5.12 11.679,-8.53 20.761,-7.48 l -0.742,-5.06 c 4.59,-1.51 10.234,-3.15 12.07,-2.36 -2.714,-13.03 -22.148,12.73 -26.113,-3.22 2.422,-1.33 4.063,-3.54 5.899,-2.76 l -6.641,-2.3 c 2.969,-0.88 6.426,-2.62 9.531,-3.15 1.289,0.22 2.735,0.26 4.102,0.37 1.152,0.51 2.148,1.39 2.91,2.96 l -3.77,2.48 c 2.149,-0.21 4.004,0.58 5.684,-1.68 0.312,-3.03 -2.07,-3.57 -4.824,-3.76 -1.231,-0.56 -2.617,-0.6 -4.102,-0.37 -1.347,-0.24 -2.48,-0.67 -3.027,-1.71 8.164,-11.19 -8.594,-14.44 -11.68,-22.33 0.879,-7.36 9.707,-5.28 13.164,-6.68 -0.41,-10.28 -12.09,6.54 -14.941,-2.42 2.461,-1.35 9.375,-0.07 6.211,-3.85 -10.391,0.2 -14.649,0.71 -18.516,-8.18 -4.629,5.76 1.504,6.05 -7.637,13.35 l -3.964,-4.68 c 1.601,1.86 0.82,4.99 -0.313,9.18 -0.684,0.14 -1.406,0.27 -2.187,0.39 l 2.168,-0.28 c 0,-0.02 0.019,-0.08 0.019,-0.11 2.09,-0.46 3.574,-0.83 3.945,0.68 l -3.789,2.52 7.989,1.14 c 5,4.54 -8.926,10.33 -2.872,14.78 3.262,-4.53 5.879,-2.79 5.059,0.42 -2.559,9.52 -9.394,4.14 -14.238,6.81 -1.426,-10.14 -12.305,-7.77 -17.481,-15.39 -0.859,3.21 -6.738,5.99 -1.718,6.42 l 0.566,-2.17 c 3.965,0.55 5.391,10.66 13.691,6.6 -7.832,6.07 3.321,6.77 2.969,11.97 z m 40.625,44.39 c 6.348,-7.84 -12.441,-3.7 -2.129,-11 -1.738,-4.89 -7.793,1.91 -11.289,3.32 3.145,3.73 7.637,6.27 13.418,7.68 z m 2.344,-19.67 -3.574,5.49 5.332,-0.57 z m 11.055,-6.32 -9.903,2.1 c 4.961,4.56 2.91,0.69 9.903,-2.1 z m 15.41,-6.83 -5.313,-3.53 c -1.347,1.18 -1.933,3.28 -4.355,4.59 l -2.344,-2.86 -1.934,3.3 c 0.664,5.06 10.137,0.96 13.946,-1.5 z m 3.398,-112.13 c 2.149,-4.43 1.621,-6.45 -2.422,-7.03 1.367,2.98 -2.422,9.69 2.422,7.03 z m 0.274,129.14 c -1.641,2.21 -5.371,0.61 -6.25,3.74 3.554,-1.4 7.558,-0.81 9.238,-3.06 l -1.797,6.35 c 3.77,1.65 4.199,-7.62 9.863,-9.25 -3.73,-1.62 -7.578,4.92 -9.375,0.02 1.348,-1.23 2.754,-2.35 3.477,-1.44 2.441,-12.55 -11.504,0.23 -17.891,-3.15 -0.371,5.15 12.344,0.68 12.735,6.79 z m 18.183,-66.07 c 0.703,0.27 1.582,0.33 2.774,0.07 -0.938,-0.45 -1.895,-0.38 -2.774,-0.07 -4.492,-1.67 -0.508,-12.17 -10.332,-5.74 1.309,2.95 5.86,5.56 -2.207,8.47 l 9.102,1.1 c -0.801,0.11 0.957,-2.93 3.437,-3.83 z m -4.726,-92.8 c -4.063,-0.63 -3.516,1.41 -6.192,3.8 l 2.149,-0.24 c 4.55,-1.55 0.273,-1.07 4.043,-3.56 z m -1.407,71.06 7.5,3.32 2.735,-6.5 c -3.223,-3.82 -5.918,2.71 -10.235,3.18 z m 11.856,-54.43 c 8.086,-7.15 -6.992,-9.69 -8.594,-11.61 6.192,4.51 -1.133,12.7 8.828,14.73 1.914,-3.34 1.328,-1.19 -0.234,-3.12 z m 45.371,35.99 c 0.605,-6.3 13.848,-4.51 8.73,-9.2 -7.597,0.75 -14.375,-1.69 -21.64,2.17 3.125,-3.29 -2.656,-3.59 -4.668,-6.35 l 0.117,-4.64 c -1.133,2.16 -0.898,3.56 -0.117,4.64 l -0.195,8.93 -5.684,1.62 c 5.117,4.65 19.668,5.28 23.457,2.83 z m 5.332,11.94 4.609,-1.47 -6.992,-5.59 z m 8.594,-54.06 c -4.043,-0.66 -8.614,-3.34 -12.422,3.32 8.125,-2.92 8.359,4.43 12.422,-3.32 z m -3.633,75.38 c 4.941,-6.71 4.687,-9.75 8.848,-17.47 -8.125,-1.29 -8.75,9.18 -15.743,3.62 z m -4.57,-198.31 c 7.031,1.39 1.445,7.32 8.711,3.38 l -4.629,-2.74 3.73,-2.52 c -1.367,-3.08 -4.375,-3.82 -7.09,-5.68 l 4.317,-3.92 c 2.304,1.5 4.414,3.09 5.937,4.99 l -3.594,-7.13 -2.343,2.14 c -9.883,-6.37 -24.825,-9.54 -28.067,-14.27 l -10.058,2.28 c 7.715,-6.23 -8.477,-5.22 -7.071,-11.74 l 7.657,-0.93 -5.43,-4.59 c 0.859,0.94 -0.899,4.3 -6.621,6.1 5.019,1.46 -4.453,11.09 4.101,5.79 l -3.476,4.54 c -0.469,0.37 -0.84,0.77 -0.938,1.27 l 0.938,-1.27 c 2.539,-1.84 9.16,-1.26 8.183,3.27 -3.281,0.41 -11.679,9.87 -10.937,1.42 -1.758,3.35 3.203,4.82 4.961,6.66 l 0.703,-3.23 c 11.465,-8.76 4.902,6.73 12.559,5.81 l 0.937,-4.33 c 7.91,-2.04 3.613,7.92 -2.344,10.77 2.813,1.73 6.211,-3.9 7.754,-6.21 3.496,-1.47 9.629,-0.13 5.41,4.59 l -3.027,-0.7 c -0.273,11.48 12.539,14.49 9.961,21.09 7.227,-3.95 6.621,-10.27 9.766,-14.84 z m 15.957,-48.4 -5.02,-6.77 c -4.141,4.73 -16.25,11.44 -9.961,16.98 8.34,1.12 5.586,-11.19 14.981,-10.21 z m 9.199,49.02 c -2.5,-4.12 -8.203,2.72 -9.317,4.12 l -0.097,0.03 c -0.274,0.42 -0.176,0.29 0.097,-0.03 z m 5.918,-2.69 c 0.762,-3.32 -3.535,-2.91 -5.449,-3.79 2.988,0.78 0.625,6.34 5.449,3.79 z m 7.793,-170.37 1.953,-4.53 -12.734,4.73 z m -5.586,97.65 c 5.293,0.49 10.625,-4.34 14.551,-2.72 -5.176,9.15 10.722,6.08 7.949,18.24 l 12.695,-4.44 c 0.117,18.31 20.547,-6.23 24.688,8.47 l -5.938,2.74 11.953,-1.12 -2.734,-1.92 c 8.711,-0.79 7.148,-8.17 4.648,-11.22 l -5.312,4.8 c -1.719,-2.01 -5.742,-8.08 1.68,-7.69 -3.36,-4.01 -14.415,2.4 -18.75,2.83 -0.235,-2.13 1.855,-3.96 3.984,-5.34 0.82,-0.32 1.797,-0.87 2.949,-1.81 -0.84,0.46 -1.894,1.08 -2.949,1.81 -6.836,2.46 -5,-13.29 -14.102,-6.66 -0.175,-4.2 -8.379,-6.48 -3.945,-12.26 -6.602,6.07 -4.16,-5.92 -11.016,-4.07 -2.461,6.67 -9.746,5.37 -10.8,5.5 -2.461,6.68 -11.25,7.67 -9.551,14.86 z m 5.703,93.72 c 0.742,0.03 1.484,-0.11 2.148,-0.69 -0.683,-0.31 -1.406,0.12 -2.148,0.69 -2.305,-0.12 -4.707,-1.9 -4.844,2.12 1.895,0.51 3.457,-1.11 4.844,-2.12 z m 10.469,-27.13 c -2.676,-2.13 -11.504,2.3 -14.356,1.89 -0.058,-0.04 -0.097,-0.03 -0.156,-0.04 -0.117,-0.04 -0.156,-0.17 -0.234,-0.25 -0.371,-0.39 -0.45,-1.03 0.097,-2.28 -0.761,1.38 -0.605,1.98 -0.097,2.28 0.058,0.1 0.136,0.17 0.234,0.25 0.078,0.02 0.098,0 0.156,0.04 1.739,0.7 6.328,-1.24 7.324,0.93 -0.937,0.88 -0.546,2.66 -1.484,4.13 l -1.933,1.58 c 1.015,-0.41 1.582,-0.97 1.933,-1.58 z m 4.472,26.28 -1.347,1.15 c 8.105,-2.86 -1.25,-8.35 3.633,-11.01 -2.422,1.32 -4.336,0.44 -5.997,-1.52 l 4.825,-2.57 -7.891,-2.46 1.348,-1.2 -5.43,0.53 c 0.566,2.04 2.715,1.84 4.414,3.85 -1.094,0.11 -2.93,3.48 -4.863,2.61 z m 8.536,8.75 c 3.769,-2.48 1.757,-11.87 -2.852,-10.38 -2.422,1.31 -2.93,3.48 -4.297,4.69 2.149,-0.18 5.176,0.57 5.488,3.71 l -2.988,1.97 c -1.719,-0.19 -3.301,0.03 -4.57,3.01 l 4.57,-3.01 c 1.465,0.18 3.027,0.66 4.649,0.01 z m 16.425,7.03 c -3.554,-2.91 -7.558,4.92 -9.277,-1.3 l -1.035,4.33 z m -7.539,-49.47 c -3.418,-8.27 -11.875,5.37 -17.187,-3.74 3.418,-5.66 7.597,-0.74 12.07,-6.5 -4.121,-5.01 -3.418,5.67 -6.758,1.7 l -0.625,-6.38 2.168,-0.18 -10.625,-0.04 c 7.656,3.51 0.489,11.74 2.52,16.88 l 8.652,-0.82 c -7.441,9.24 9.102,6.62 2.715,15.79 3.223,-4.62 11.973,-1.14 10.215,-7.39 -6.992,2.77 -5.078,-10.22 -10.391,-1.15 -0.312,-3.17 3.399,-9.95 7.246,-8.17 z m 8.789,21.62 c -0.8,0.33 -1.543,0.36 -2.207,0.26 l 0.059,-0.04 -0.274,0.01 c -2.05,-0.49 -3.046,-2.96 -1.464,-6.28 -8.477,-0.28 -1.856,3.41 -6.954,7.03 l 8.418,-0.75 c 0.079,0.02 0.137,0.01 0.215,0.03 l -5.097,3.64 c 3.281,-0.29 5.957,-2.72 7.304,-3.9 z m 15.157,-9.91 c 5.078,-8 7.617,-0.72 13.632,-3.36 -1.777,-6.27 -10.742,-0.13 -15.351,1.38 -6.27,-0.49 0.215,-5.37 -1.973,-5.2 l -7.793,6.08 c 4.102,0.66 10.625,0.12 11.485,1.1 z m -3.965,52.55 c 3.008,0.8 5.996,-2.67 6.211,-3.71 l -8.184,-1.46 c -0.781,3.29 -1.582,6.55 1.973,5.17 z m 3.652,11.33 2.461,-1.31 -3.047,-4.99 z m 18.672,-42.05 -2.871,-3.36 4.433,-3.16 -4.941,2.57 0.508,0.59 -5.86,4.18 z m 8.945,-24.24 -7.695,0.68 3.34,3.99 z m 0.742,55.39 c 2.813,6.11 7.715,3.58 14.59,1.95 -2.675,-1.83 -4.726,-5.63 -2.461,-8.01 0.098,-0.07 0.235,-0.17 0.332,-0.27 8.301,0.42 5.977,5.81 14.414,1.95 l 0.977,-11.66 c 0.527,-0.62 0.996,-1.36 1.348,-2.36 l -1.133,0.09 -0.215,2.27 c -3.926,4.96 -11.738,-0.21 -17.598,0.29 l 3.614,2.88 c 0.957,2.72 0.234,4.82 -1.407,6.54 -0.058,-0.02 -0.097,-0.03 -0.156,-0.02 -0.117,0.06 -0.098,0.22 -0.176,0.29 -2.832,2.68 -7.851,4.42 -12.129,6.06 z m 23.633,-58.54 0.254,-1.08 -7.656,0.65 -0.274,1.09 z m 8.692,-32.91 0.293,-1.14 -7.715,0.66 -0.254,1.09 z m -10.274,-5.61 -2.5,0.22 c -0.586,-2.12 1.875,-3.41 2.364,-5.59 -2.208,0.18 -7.774,-3.68 -7.911,1.72 2.735,5.01 5.215,4.47 8.047,3.65 l 6.289,-0.54 c -2.422,-0.64 -4.414,0.02 -6.289,0.54 z m -4.062,16.49 c 0.468,-2.2 3.515,-1.37 5.136,-3.69 l -5.332,-4.9 c 1.7,1.98 -4.296,4.67 -7.832,6.04 z m -36.621,5.29 1.172,4.21 2.968,-3.49 z m -65.723,-124.82 -3.105,-6.07 -0.391,7.56 c 1.113,-0.14 3.086,0.71 3.496,-1.49 z m 1.543,-7.66 c -0.234,-0.68 -0.586,-1.19 -0.938,-1.63 1.446,-1.86 8.028,-4.62 7.032,-7.68 -3.301,0.35 -5.332,-5.83 -8.789,1.03 -2.715,4.78 -0.02,4.51 1.757,6.65 -0.507,0.69 -0.41,1.21 0.938,1.63 z m -9.922,-26.73 c -0.078,0.46 0.371,0.64 1.035,0.74 l 6.504,4.79 c 1.836,-5.32 -4.043,-4.4 -6.504,-4.79 z m 9.492,-50.77 -4.375,0.51 2.832,3.11 -0.39,0.93 2.011,0.81 -1.621,-1.74 z m -15.468,70.82 2.656,2.89 c 3.711,-2.59 1.054,-5.52 0.156,-6.44 z m -32.208,101.84 c 0.606,2.05 5.665,3.54 5.665,3.54 -2.598,-2.85 4.179,-4.74 4.414,-5.8 z m -48.613,58.71 c -3.984,3.64 -1.504,11.71 -1.504,11.71 6.387,-4.97 -1.875,-6.01 1.504,-11.71 z m -14.531,22.79 3.066,0.64 6.387,-4.98 z m -61.797,-91.43 -0.215,1.09 7.578,-1.07 0.235,-1.11 z m -3.594,-13.27 c -0.41,2.2 -1.328,6.55 2.383,3.91 1.309,-1.28 0.86,-4.38 3.008,-4.65 z m -43.808,35.95 3.418,3.73 c 1.074,-5.45 0.879,-4.37 -3.418,-3.73 z m -92.071,45.73 c -3.652,2.65 4.219,-0.68 1.211,3.99 -9.609,6.78 -11.953,-6.45 -8.73,-12.21 -2.578,2.49 -2.461,11.91 -7.715,7.52 6.289,4.24 1.133,9.27 10,10.95 l -3.887,3.75 c 2.051,4.89 13.379,-0.06 7.285,9.26 l 7.286,-5.37 c -1.875,-0.72 -9.844,-6.76 -3.028,-9.92 5.547,-1.94 8.203,4.96 11.68,-1.85 -9.219,4.58 -10.059,-5.73 -14.102,-6.12 z m 1.817,-8.69 c 3.984,0.44 1.523,12.32 7.715,7.16 -1.192,-4.03 -1.368,-8.18 -7.715,-7.16 z m -4.629,69.56 4.844,1.31 c 1.074,-0.19 2.363,-1.42 1.543,-2.35 z m -24.297,-29.34 -1.875,8.68 c 2.09,-0.37 4.453,-1.82 5.078,0.17 l 0.352,-6.28 5.41,3.29 c -0.371,-3.08 -2.031,-4.93 0.527,-7.37 l 11.426,-0.82 c -0.449,2.15 -3.398,1.56 -4.941,3.9 l 6.855,1.64 c -0.059,0.14 -0.059,0.27 -0.098,0.39 0.157,-0.07 0.391,-0.15 0.586,-0.26 l 8.262,1.98 c -0.84,-0.91 0.254,-1.1 1.543,-2.35 -0.156,-3.88 -6.25,-1.28 -9.805,0.37 l -0.488,-0.13 c 2.52,-8.31 -3.672,-7.46 -8.789,-11.76 -4.238,0.69 -8.398,10.76 -14.043,8.55 z m -33.75,-23.55 2.012,4.88 8.32,-5.59 z m 14.688,-59.65 -3.321,-4.59 c -5.722,3.09 -0.312,7.28 -8.027,9.73 l 5.586,-2.06 -0.879,-0.85 c 1.465,-2.36 3.828,-3.79 6.641,-2.23 z m -3.399,-9.78 -11.543,1.09 c -3.808,3.81 -0.332,7.31 3.75,7.61 1.68,-3.44 9.356,-5.88 7.793,-8.7 z m -22.851,86.03 0.156,4.12 3.242,-5.75 z m -1.895,-80.41 6.855,1.83 2.071,-5.57 c -3.281,-4.59 -8.047,4.59 -8.926,3.74 z m -8.359,65.64 c -3.731,1.58 -2.012,4.23 -4.571,6.26 -0.566,0.22 -1.269,0.59 -2.011,1.11 0.918,-0.32 1.523,-0.7 2.011,-1.11 2.5,-0.99 3.653,0.35 3.946,1.8 -0.996,1.09 -1.563,2.01 -0.411,2.4 0.43,-0.45 0.606,-1.44 0.411,-2.4 2.402,-2.62 7.558,-6.47 0.625,-8.06 z m -39.571,-119.05 2.246,4.82 0.391,-2.19 z m -4.57,37.46 3.438,3.51 -5.489,2.09 c 1.035,-0.23 8.281,-0.55 9.258,-5.95 z m -9.336,2.05 c -0.391,-0.21 -0.781,-0.37 -1.152,-0.63 0.312,-2.55 -5.625,-1.62 -2.149,-5.17 2.129,-1.42 4.532,-4.49 5.957,-2.05 l -0.84,2.02 1.25,-1.24 c -0.136,-0.32 -0.273,-0.56 -0.41,-0.78 l 0.996,-2.43 c -6.386,1.26 -7.226,0.38 -12.89,3.53 l 1.679,1.8 c 1.915,0.11 4.063,2.68 6.407,4.32 -0.02,0.21 0,0.4 -0.137,0.69 0.508,0.07 0.879,-0.01 1.289,-0.06 2.344,1.17 4.863,1 7.578,-3.78 -4.941,-3.78 -3.359,3.2 -7.578,3.78 z m -7.5,66.51 9.688,-8.07 1.718,1.7 c 0.176,-6.18 -9.863,-12.5 -14.785,-13.58 1.953,5.78 11.582,9.09 3.379,19.95 z m 6.66,18.27 c 1.309,-1.28 4.063,0.28 2.364,-1.48 4.003,-4.89 5.136,0.03 8.457,-1.67 l -7.657,-2.63 c -1.269,1.27 -5.918,4.27 -3.164,5.78 z m 7.949,16.92 c 0.899,0.15 1.309,-0.6 1.602,-1.58 l 4.766,-4.79 c -4.024,-1.34 -4.082,2.47 -4.766,4.79 z m 2.559,12.82 c 3.027,0.46 3.848,-3.82 4.258,-5.93 l -6.172,0.17 z m -6.719,-87.27 c 2.813,6.7 1.641,13.14 11.153,11.3 4.98,-10.31 -10.039,-6.32 -11.153,-11.3 z m -34.765,-61.81 -7.5,-3.74 3.066,-5.87 c -3.281,-4.54 -6.855,4.5 -10.879,4.3 1.133,4.98 12.051,0.7 7.949,6.77 z m 488.105,286.94 -8.105,-1.36 4.101,-3.52 c -9.023,6.06 -10.547,-8.36 -15.781,-0.59 -0.273,5.25 1.309,7.15 3.477,11.12 l -9.297,7.08 c 6.269,-3.7 17.734,-10.99 25.605,-12.73 z m 31.817,-44.66 -1.133,0.14 2.168,3.82 c -0.332,0.07 -0.625,0.16 -1.035,0.25 l 1.113,-0.1 -0.078,-0.15 c 8.906,-2.21 -6.114,-7.93 3.867,-14.85 l -7.891,1.73 c -0.254,1.05 2.422,7.16 2.989,9.16 z m 90.859,2.05 c 7.734,-4.76 -0.508,-6.29 1.66,-10.62 -0.84,3.21 -3.281,8.62 -1.66,10.62 z m 11.309,-97.04 -8.047,-2.57 1.445,3.08 z m -4.903,101.82 c 1.992,-2.23 3.789,-5.35 5.391,-6.03 0.449,0.24 0.957,0.29 1.544,0.23 0.21,0.19 0.43,0.48 0.62,0.77 l -1.227,1.42 1.407,-1.17 c -0.06,-0.11 -0.1,-0.12 -0.18,-0.25 l 1.8,-1.96 c -0.98,0.81 -1.74,1.09 -2.42,1.19 -0.509,-0.42 -1.017,-0.43 -1.544,-0.23 -2.012,-0.98 -3.184,-3.97 -7.071,-0.15 7.149,-2.62 -0.839,3.19 1.68,6.18 z m -19.394,-21.65 3.359,-0.27 c 1.602,-2.22 3.574,-1.31 3.281,-4.45 z m -9.903,-16.1 c 6.035,-2.55 5.254,4.9 8.516,4.63 4.961,-2.51 -9.688,-8.74 -8.516,-4.63 z m 38.872,-101.79 4.64,-1.43 -7.945,1.66 z m 2.07,9.43 c 0.29,-1.05 -0.84,-0.94 -0.57,-2.03 l 3.85,-2.45 -3.67,-2.96 -4.61,5.74 z m 29.51,12.83 0.8,-3.27 -7.23,-1.64 z m 48.44,25.48 c 1.69,-2.24 1.34,-5.37 3.57,-5.5 -5.27,-0.73 -4.14,3.43 -6.88,5.74 z M 936.445,1669.79 c 1.485,0.22 3.008,0.1 4.414,-0.78 1.914,-0.39 3.692,-0.7 4.942,-0.47 l -1.231,-4.27 c -1.093,2.46 -2.382,3.95 -3.711,4.74 -1.425,0.31 -2.91,0.62 -4.414,0.78 -2.734,-0.45 -5.39,-2.09 -7.343,-2.47 -0.098,-0.14 -0.215,-0.2 -0.274,-0.36 l -0.273,0.27 c -1.172,-0.08 -2.012,0.42 -2.383,2.15 l 2.383,-2.15 c 0.156,0 0.351,0.04 0.547,0.09 1.543,2.48 4.336,2.8 7.343,2.47 z m -112.422,14.51 c -0.214,0.92 -0.703,1.91 -1.328,2.92 -2.597,1.67 -7.05,2.64 -2.422,5 l -0.918,-0.94 c 1.485,-1.43 2.559,-2.76 3.34,-4.06 1.211,-0.78 2.09,-1.66 1.328,-2.92 z m -23.144,-90.31 c 3.887,-3.75 8.418,6.47 13.086,-1.64 -4.121,-0.56 -1.309,-4.16 0.39,-7.62 z m -6.484,-11.05 -0.391,2.22 7.031,2.37 z m -7.149,-72.76 c -2.949,4.75 -11.855,7.03 -14.551,4.1 0.879,-1.44 2.032,-2.1 3.106,-2.71 0.547,-0.12 1.133,-0.37 1.836,-1.23 -0.508,0.5 -1.172,0.84 -1.836,1.23 -2.696,0.51 -4.16,-5.5 -7.227,2.13 -5.84,-9.04 -12.5,-8.05 -21.855,-9.84 2.226,-2.21 5.371,-3.72 8.105,-4.55 1.543,-0.16 3.047,-0.32 4.512,-0.53 -0.84,-0.33 -2.559,-0.06 -4.512,0.53 -4.258,0.42 -8.672,0.92 -12.168,3.06 -4.375,7.08 3.692,3.69 2.461,11.42 l 1.074,-6.61 c 2.188,-0.32 4.571,-1.73 5.313,0.27 0,0 -1.25,1.22 -2.383,1.46 l 4.414,5.75 -10.019,8.99 c 5.839,-2.99 15.273,3.32 9.961,9.5 -1.25,1.27 -3.653,2.68 -5.821,2.99 9.278,7.43 10.137,20.25 23.282,23.94 3.085,0.65 5.644,-1.85 9.121,-3.37 -13.34,-2.53 -4.356,-23.23 -14.922,-29.44 1.758,1.92 7.109,-4.24 8.691,-1.18 l -2.773,3.64 c 2.89,1.77 7.597,10.94 11.582,0.64 l -7.93,-3.3 c 8.633,-6.6 10.879,10.53 18.828,1.87 2.969,-4.73 -7.656,-10.94 -6.289,-18.76 z m -12.558,-26.56 c -0.411,0.51 -0.606,1.03 -0.665,1.56 -1.953,2.9 -7.382,3.54 -6.269,8.06 0,0 2.305,0.73 4.609,1.46 2.266,0.8 4.512,1.6 4.512,1.6 0.879,-4.87 -3.301,-8.07 -2.852,-11.12 0.293,-0.46 0.567,-0.97 0.665,-1.56 z m 11.992,162.66 1.093,5.21 c 4.161,-4.85 -2.832,-7.15 -5.468,-4.65 0.879,0.96 1.328,4.11 4.375,-0.56 z m 4.023,-77.95 c -1.055,0.12 -3.867,3.73 -6.465,6.21 -2.5,7.88 1.094,-0.16 4.063,7.03 l 3.125,-5.79 -4.531,1.67 c -1.778,-1.95 5.371,-6.09 3.808,-9.12 z m -62.519,28.8 c 8.261,1.02 -0.469,-3.17 6.484,-6.27 -2.441,1.42 -5.859,2.96 -6.484,6.27 z m -1.68,-13.78 -1.641,8.87 3.653,-2.66 -3.223,0.44 z m -8.027,97.56 -2.579,2.5 2.598,-2.49 -0.019,-0.01 2.617,-2.49 -8.887,2.28 z m 14.062,-16.25 c 0.586,1.01 1.563,1.65 3.691,1.07 l -3.691,-1.07 c -1.484,-2.69 0.293,-8.2 -6.309,-1.85 z m 6.563,8.12 c -5.254,-0.35 -5.879,2.92 -9.356,4.45 z m -291.875,-25.13 c 2.382,2.96 2.851,10.82 10.468,6.57 -2.968,-1.07 -3.476,-1.97 -1.445,-3.7 l 7.988,13.84 c 0.157,2.31 0.254,4.24 -0.722,9.74 l 3.574,-2.78 c 0.41,0.12 0.801,0.08 1.133,0 l 3.73,6.42 c -1.445,0.65 -3.027,1.05 -5.137,0.97 l 1.27,-1.3 -5.02,5.13 c 5.918,-4.28 13.282,0.67 8.047,6.86 l -4.043,-0.28 -0.097,6.27 0.547,-3.23 c 4.96,-3.3 8.789,-3.04 11.953,-1.41 l 31.972,55.42 c -4.765,-0.71 -2.754,-8.29 -12.636,-4.63 -0.957,1.49 -0.645,2.75 -0.879,3.85 l -1.231,1.74 c 0.879,-0.54 1.094,-1.13 1.231,-1.74 l 3.047,-4.26 7.636,9.01 c -5.605,2.08 -2.304,6.59 -4.004,10.03 l 6.641,-2.23 c -5.195,6.03 6.758,7.25 10.527,8.69 -1.054,-3.4 -2.539,-5.8 -3.437,-8.56 l 11.66,20.18 82.012,-47.34 c -0.567,2.52 -1.27,5.19 -4.649,4.26 6.641,3.2 15.528,10.29 21.953,9.32 -2.363,1.41 -2.812,3.61 -4.316,5.96 8.496,2.36 11.387,-13.42 16.895,-18.36 0.918,-0.44 1.796,-0.87 2.734,-1.45 -0.996,0.13 -1.875,0.72 -2.734,1.45 -3.633,1.75 -6.739,2.25 -7.774,-0.97 l 1.328,-1.25 c -8.418,0.29 -13.027,1.49 -19.883,-0.99 l 20.84,-12.06 c 4.004,2.6 8.594,4.26 12.344,3.7 l -0.977,-10.26 41.934,-24.2 6.133,-22.87 c 1.855,3.17 3.301,6.77 6.191,5.1 -7.265,-2.11 -2.343,-9.35 -4.258,-12.36 l 11.895,-44.39 c 0.957,0.45 1.797,1.57 2.461,3.98 -1.504,-3.06 3.789,-9.14 6.445,-6.33 -2.578,2.57 -1.054,5.56 -4.687,8.19 7.383,5.45 8.476,5.28 15.215,8.62 -1.68,3.47 -2.539,7.88 -7.305,10.69 5.84,-2.97 13.457,1.38 8.926,8.44 -0.879,-0.99 -1.543,-3.05 -3.711,-2.74 4.16,0.52 0.293,14.91 8.554,10.59 -2.89,-7.09 10.801,-6.78 13.379,-9.24 -11.035,7.86 5.274,5.67 -1.66,14.08 -4.765,2.75 -4.121,-5.88 -6.719,1.97 9.375,6.22 7.168,-9.5 16.485,-3.24 1.543,2.98 -4.531,6.96 -5.821,8.22 l -1.972,-0.82 c 1.738,7.25 -2.813,8.94 -6.074,14.7 -1.075,0.13 -1.934,-0.82 -0.684,-2.06 l -3.887,3.71 c 6.758,3.36 13.946,9.86 13.516,17.35 -7.188,4.14 -3.047,-5.96 -10.02,-2.91 l -0.644,3.25 c -6.738,1.97 -1.953,-6.09 -6.074,-6.6 -5.235,4.96 2.597,8.13 -4.59,12.29 -5.156,-5.68 -3.203,0.43 -8.867,-3.03 l 5.859,-2.93 -13.008,1.81 c 6.055,-4.05 14.531,-9.49 14.531,-14.79 -8.906,-3.03 -12.773,11.34 -15.839,10.68 -13.223,18.8 12.539,16.33 3.378,30.28 9.786,-1.34 18.418,-2.5 23.633,3.14 8.321,-9.53 -0.82,-16.8 6.387,-26.23 -0.215,1.07 11.523,5.91 1.055,10.47 4.355,4.68 18.691,1.77 15.429,7.48 l -1.093,0.14 c 4.375,-0.56 7.422,0.1 10.683,-0.28 -1.328,1.2 -2.617,2.39 -1.758,3.39 5.879,-2.87 8.985,-12.81 17.715,-8.63 l -2.636,2.47 7.031,-3.04 c -2.871,-1.71 1.523,-2.29 0.215,-6.38 2.187,-0.24 5.664,-1.76 7.441,0.14 2.617,2.87 -1.348,6.54 -2.891,8.86 7.247,-4.06 10.274,1.88 13.34,2.55 l -0.176,-4.15 c 1.954,0.8 5.704,-1.77 7.227,1.2 -1.367,1.21 -3.73,2.58 -4.18,4.72 5.45,4.67 15.977,0.23 20.782,2.77 -2.813,-1.77 -4.571,-3.64 1.406,-6.48 l -8.594,-0.04 c 9.473,-4.33 -5.058,-6.82 4.414,-11.13 -4.375,-4.77 -17.773,-2.09 -21.465,-10.14 -7.656,-4.36 6.993,-8.26 9.2,-13.88 l -10.938,1.34 2.637,2.87 c -5.078,-1.51 -5.508,5.97 -10.078,2.34 -0.02,-5.32 -0.664,-7.38 1.308,-11.91 l -2.187,0.28 2.851,-3.54 c -5.488,6 -8.105,-2.22 -10.293,3.44 -13.808,-11.02 -16.836,-22.41 -28.281,-34.84 -5.723,-8.89 -14.766,-0.14 -18.769,-12.47 0.625,-3.33 6.093,-4.04 3.886,-3.76 1.465,-7.72 -10.625,0.36 -8.105,-7.52 l -6.895,3.09 c 2.129,-5.65 -5.468,-4.61 -9.179,-7.31 4.55,-1.72 5.644,-1.88 8.378,-5.46 l -6.464,0.87 1.543,3.06 c -10.586,5.74 -7.422,-5.47 -13.106,-8.94 l 6.465,-6.32 -6.973,-2.26 c -3.691,2.66 6.739,3.34 -1.621,8.87 -1.445,0.63 -2.187,0.16 -2.48,-0.57 l 0.664,-2.49 c 0.41,-0.45 0.84,-0.92 1.523,-1.25 -0.39,0.4 -0.879,0.46 -1.328,0.52 l 4.199,-15.67 0.86,0.67 1.484,-2.41 4.121,0.53 c 1.465,-4.04 -2.226,-2.98 -5.625,-1.89 l 48.321,-180.28 79.394,133.03 c -6.035,-0.58 -12.344,0.16 -16.641,0.66 1.797,1.98 4.883,2.69 6.914,3.51 l -6.093,4.01 c 6.426,5.72 12.226,9.33 23.633,5.8 -0.059,-0.34 -0.02,-0.59 0,-0.87 l 24.941,41.73 c -0.137,0.19 -0.176,0.3 -0.313,0.53 0.235,0.14 0.547,0.22 0.821,0.32 l 20.449,34.23 70.859,19 -0.156,3.24 4.375,-2.1 21.094,5.63 c -0.391,1.27 -0.235,2.63 0.976,4.06 1.133,-1.36 2.11,-2.32 3.028,-2.99 l 14.081,3.77 -0.7,3.4 c 8.16,-2.85 11.15,3.46 17.07,6.27 l -3.81,2.49 c 8.67,-5.03 12.77,1.22 17.58,4.08 l -9.34,2.92 c -17.3,-5.19 -22.5,-11.36 -40.838,-16.42 -4.063,3.63 -14.434,-3.16 -19.004,8.15 4.57,-11.31 -3.653,-3 -4.942,-7.24 l 15.879,-3.54 -7.129,-7.04 c -5.976,2.71 -11.796,9.73 -18.359,10.33 10.625,5.62 10.781,19.79 21.777,18.81 l -7.89,11.53 c -3.34,-9.46 -14.766,-6.33 -23.028,-7.78 l 4.942,-8.02 c -2.168,0.17 -6.016,8.09 -13.809,4.43 l 3.36,-5.69 -15.371,6.78 2.265,-5.6 -7.598,10.42 c 3.77,7.25 13.477,11.82 8.868,23.05 -6.465,4.9 -10.098,2.02 -16.485,6.92 3.867,-7.9 -2.05,-14.95 5.45,-19.99 -8.145,-1.49 -6.641,-9.05 -12.637,-11.61 0.879,-4.36 -1.602,-8.33 3.496,-12.08 -15.488,1.69 -11.328,-13.71 -25.059,-15.39 l 3.575,3.88 c -5.958,-2.55 -13.223,1.47 -20.743,1.28 8.809,-6.37 -1.152,-10.53 0.996,-16.16 l -10.117,2.26 -3.672,13.29 9.883,4.21 -14.687,19.78 5.722,3.61 c 0.879,-4.37 -0.215,-9.62 5.723,-12.41 7.93,-1.98 14.375,9.02 18.105,17.09 3.965,-8.94 5.489,4.71 9.043,-2.03 4.903,2.63 17.051,6.59 7.969,13.94 l 6.563,-0.61 c 0.566,2.16 -7.09,8.17 -15.45,6.92 1.934,6.18 12.11,3.18 18.223,4.73 l -4.492,5.8 17.031,4.95 2.344,-5.66 c 10.762,4.49 -1.875,13.15 6.191,19.97 l 5.723,-1.59 -1.484,6.62 8.496,0.32 c 9.297,-12.68 -7.754,-3.64 -5.782,-12.43 11.973,8.66 27.832,5.15 35.254,15.33 l 0.235,12.91 c 8.554,0.34 16.269,-0.27 17.441,4 l -1.035,4.35 c -1.289,-8.51 -9.258,2.85 -11.563,-1.21 l 7.793,17.6 -0.234,0.31 c -0.449,-0.14 -1.367,-0.2 -3.066,-0.05 -2.051,-5.19 -9.239,-6.75 -9.707,-4.59 -2.207,0.2 2.07,9.49 6.386,4.82 l -8.632,9.26 -8.79,0.75 -2.656,6.64 21.328,-8.16 9.18,6.82 6.504,-9.1 -12.656,3.13 1.035,-4.37 c 7.519,-9.16 6.367,0.6 13.984,-4.28 l -4.687,-2.89 6.211,-3.69 c 11.307,-1.96 11.987,18.37 19.437,18.89 4.57,-5.71 10.39,-7.25 16.17,-8.69 4.86,-6.81 -4.79,11.07 3.22,9.42 l 3.24,-4.53 13.13,4.44 0.41,7.5 15.96,-7.52 2.34,4.12 2.81,-5.02 c 1.17,1.91 6.29,4.84 6.13,8.69 3.58,-2.99 9.01,-3.73 10.55,-7.32 0.24,2.89 7.89,-2.31 12.46,-1.61 l -7.13,6.85 c 2.89,6.25 7.48,-3.66 11.35,-6.04 1.45,3.12 4.3,5.09 7.91,3.79 l -4.86,11.01 c 16.35,-8.44 16.25,10.73 32.48,6.8 -2.66,10.81 -22.6,-6.43 -38.19,3.17 l 5.26,-3.52 c 4.76,2.91 -4.71,-12.56 -11.8,-1.41 4.51,-0.33 6.17,1.76 2.91,6.21 l 9.26,2.67 c -9.98,4.87 0.98,9.52 -10.37,15.54 -0.1,9.5 4.63,15.91 6.7,24.5 l -6.15,6.49 -27.9,16.09 c 2.08,-6.66 4.36,-12.76 -4.12,-13.21 l 3.56,-5.54 c -5.55,0.33 -13.71,-6.5 -13.79,-15.02 4,-16.22 -17.5,0.11 -18.65,-8.32 l -3.26,8.73 c -10.73,-14.11 -28.91,-6.42 -41.997,-19.25 -3.164,12.96 22.757,8.94 13.187,21.34 7.77,-0.58 15.31,8.41 22.71,0.47 6.99,2.7 0.67,10.58 7.62,13.26 -3.36,0.24 -4.3,1.89 -4.9,3.26 -0.82,0.39 -1.72,0.84 -2.82,1.53 1.94,0.91 2.21,-0.16 2.82,-1.53 8.88,-3.78 3.36,11.29 15.54,6.59 -3.3,8.66 -10.82,3.91 -11.62,7.16 11.45,-2.87 12.35,7.21 18.69,10.39 l -75.485,43.59 2.383,-6.9 c -6.055,-1.65 -1.387,-3.05 -8.848,-3.53 0.703,-0.58 1.368,-1.15 1.993,-1.46 0.507,0.06 1.015,0.18 1.582,0.14 -0.391,-0.49 -0.957,-0.49 -1.582,-0.14 -2.52,-0.37 -4.473,-2.03 -4.747,-4.65 2.247,-4.36 7.461,-3.73 8.848,-0.68 3.027,-3.36 -1.953,-9.29 4.395,-8.72 -8.809,-3.55 -20.704,4.75 -28.106,-4.14 3.027,-3.41 7.442,-3.75 9.902,-4.98 -2.187,0.16 -5.781,1.51 -6.328,-0.58 1.934,-3.32 8.789,-0.65 6.309,-3.66 -4.102,-0.71 -10.215,-2.32 -13.535,-6.26 6.621,-4.78 14.863,-3.3 22.304,-7.08 0.02,0.07 0.04,0.12 0.02,0.15 -0.117,0.43 -0.176,0.81 -0.039,1.1 0.371,4.03 8.164,3.91 3.887,9.04 -1.094,0.09 -1.895,-0.94 -3.008,-0.83 4.121,0.71 -0.82,3.23 0.293,7.35 3.594,2.87 12.93,-8.32 6.347,-7.86 l -1.386,1.15 c 5.957,-7.58 -4.903,-6.17 -6.133,-8.85 -0.02,-0.37 -0.059,-0.68 0.039,-1.1 0.254,-0.82 1.113,-1.96 2.988,-3.54 l -7.168,2.69 c -0.82,-5.21 -6.933,-11.05 -12.441,-10.62 l 4.16,-3.56 c -3.359,-3.96 -1.172,-4.11 -6.953,-6.81 2.012,-1.73 4.727,-3.24 7.285,-4.35 2.832,-0.06 5.684,-0.45 8.34,-2.22 0.156,-0.67 -3.906,0.25 -8.34,2.22 -6.797,0.07 -13.262,-2.02 -15.508,7.17 l -4.433,-3.93 7.07,-6.88 c -6.602,-3.73 -18.691,-6.93 -19.355,-17.46 -0.508,-5.03 3.085,-7.09 6.855,-7.81 1.992,0.49 4.434,0.72 7.871,0.17 -0.937,-0.45 -4.473,-0.83 -7.871,-0.17 -5.84,-1.54 -7.637,-5.7 -17.617,-0.86 3.808,-2.48 5.937,-6.92 8.945,-6.09 -5.234,-5.05 -9.453,5.45 -13.73,2.09 -0.723,-0.89 -1.426,-1.73 -2.129,-2.82 0.722,1.42 1.406,2.26 2.129,2.82 6.914,8.6 12.89,7.08 11.816,23.56 l -9.863,-3.41 c -3.516,5.61 5.469,3.81 8.222,5.71 -5.996,2.61 -14.472,2.26 -18.515,10.04 2.773,1.89 -0.742,7.48 -1.016,12.78 7.363,-8.06 7.403,0.4 13.731,0.91 -10.157,1.93 -19.961,2.82 -25.196,-1.99 3.243,-4.52 -3.847,-5.99 -4.922,-5.93 -1.718,-6.17 7.325,-3.85 4.297,-4.58 -8.125,2.83 2.852,-16.15 -10.976,-11.72 l 1.621,-2.25 -3.262,4.55 c -4.883,-1.68 -1.406,-7.32 2.149,-8.69 -12.051,-3.13 -1.485,-11.54 -11.055,-15.96 l 3.789,-2.49 c -6.758,5.97 -10.742,-8.54 -20.156,-4.45 3.515,-1.41 2.91,-3.44 2.343,-5.55 -4.609,1.54 -5.019,12.19 1.524,11.58 -4.902,2.58 -12.734,4.39 -14.434,-1.8 1.387,3.04 -6.406,9.14 -11.289,7.51 -6.797,-2.51 9.082,-11.56 -1.465,-11.56 4.571,-1.52 11.543,-8.6 12.403,-3.37 2.597,-6.61 -10.078,-6.42 -3.145,-13.52 -1.758,-10.48 -11.015,6.41 -13.027,-2.96 1.308,-1.19 3.984,-3.54 5.918,-2.73 1.836,-3.37 -1.934,-0.81 -3.008,-0.74 -2.148,0.22 -6.66,5.97 -4.18,8.92 13.926,-9.93 0.118,12.8 11.465,9.5 -4.824,2.62 -18.301,10.38 -16.797,-0.42 l 2.364,-1.08 c 1.035,0.19 2.187,-0.1 3.613,-1.67 l -3.613,1.67 c -1.993,-0.45 -3.477,-3.06 -5.664,-2.84 l 3.183,-4.56 c 0.352,-1.41 -3.027,-3.26 -5.801,-4.41 -0.39,-0.19 -0.781,-0.33 -1.211,-0.46 -1.074,-0.37 -1.933,-0.62 -2.187,-0.59 0.703,0.19 1.445,0.35 2.187,0.59 0.391,0.13 0.782,0.26 1.211,0.46 1.582,0.77 2.403,2.1 0.469,4.92 -2.441,1.35 -7.246,3.93 -9.18,3.07 1.407,3.07 5.43,3.72 4.161,9.14 l 2.597,-6.62 3.867,5.95 c -2.656,2.41 -7.5,5.04 -8.32,4.06 10.274,1.08 11.992,15.76 24.492,16.6 l -2.168,0.25 c -0.742,7.48 8.379,0.2 10.332,5.31 -5.097,7.92 6.895,10.97 -0.937,17.04 12.949,-9.74 4.922,10.05 12.754,4.04 5.722,2.58 -1.582,6.49 -3.223,8.72 0.899,13.63 6.309,8.89 7.149,18.3 5.136,-3.66 1.113,12.53 11.738,8.34 1.601,2.01 -1.641,10.68 4.082,13.27 l -4.082,3.55 c 6.797,-1.63 9.531,-8.25 11.68,-8.43 7.91,2.45 -0.508,10.53 2.46,11.35 l 6.29,-12.13 c 6.562,-0.58 13.066,-5.35 17.207,-0.47 1.601,-6.4 8.476,-8.08 3.281,-12.89 4.59,-5.66 11.191,-2.01 12.558,1.06 1.387,3.01 -5.781,5.74 -9.277,7.09 6.016,-2.63 14.746,-3.37 15.352,2.9 -3.282,0.25 -8.77,4.95 -9.61,-0.25 1.114,-0.08 2.442,-1.25 1.641,-2.25 l -7.949,5.93 c 1.679,6.13 3.3,8.13 10.156,6.51 -0.274,5.28 -10.957,9.3 -10.684,4.03 l -1.66,6.45 -8.711,0.72 c -3.594,13.93 3.496,11.23 -3.105,24.32 -7.93,-2.46 -4.903,-5.82 -11.992,-7.28 l 0.273,7.28 c -3.555,1.33 -3.262,-8.08 -7.656,-3.48 -6.035,2.62 1.855,9.18 -6.602,8.92 1.641,1.93 6.582,-0.61 7.422,-3.82 -2.773,6.52 9.805,-0.84 4.609,6.89 l 3.829,-6.56 c 14.648,6.68 9.746,17.04 11.113,28.69 l -154.004,88.91 -8.906,-0.68 3.73,3.69 -140.215,80.93 -34.687,-60.1 2.48,-2.25 -3.281,0.9 -22.266,-38.57 c 0.489,-0.57 1.075,-1.18 1.954,-1.85 -1.192,-0.2 -2.208,-0.22 -3.125,-0.24 l -18.301,-31.67 c 3.613,-0.69 7.343,-1.69 11.152,-3.13 l -7.246,-8 0.703,-0.76 c 1.231,-0.46 2.383,-1.52 3.535,-3.92 l -3.535,3.92 c -2.891,1.12 -6.133,-1.4 -10.41,1.83 l -5.508,-9.5 c 0.645,0.02 1.27,0.04 1.856,0.1 0,0.13 0,0.23 0.039,0.33 0.195,-0.07 0.41,-0.19 0.586,-0.32 7.304,0.54 10.058,1.2 15.546,-3.21 -3.867,-4.28 -9.921,0.27 -15.546,3.21 -0.196,0 -0.411,-0.04 -0.625,-0.01 -0.02,-3.64 -2.149,-6.78 -5.645,-6.63 L 407.285,1823.67 c 3.399,-2.69 4.121,-10.4 7.969,-5.51 0.43,-2.11 1.68,-8.55 -2.988,-5.59 l -2.11,5.55 -7.07,-1.73 -5.469,-9.49 -0.254,-1.66 -0.488,0.36 -4.941,-8.52 3.671,-0.41 -0.781,0.81 8.457,-1.66 -7.676,0.85 0.45,-0.46 -4.16,0.83 -74.336,-128.78 c 1.23,0.85 2.285,1.88 2.812,3.01 1.211,-1.32 5.215,-1.09 3.692,-3.91 -4.043,-0.18 -8.692,-2.34 -7.813,-7.8 4.941,-5.27 10.117,-0.05 12.715,2.56 l -1.055,0.23 c 2.012,5.88 9.844,7.38 17.012,6.97 l -5.645,3.27 5.586,2.99 0.723,-4.32 c 4.883,1.07 13.691,-2.8 16.543,3.94 6.875,-4.55 -0.469,-3.04 -2.363,-3.75 7.89,-4.71 8.925,-16.5 16.777,-21.26 3.789,7.64 11.797,14.43 17.5,22.77 l 4.121,-6.1 c -1.816,4.59 8.008,6.84 5.996,12.48 l 8.555,-8.03 c 1.719,1.77 0.098,5.22 -2.578,8.91 l 4.59,-2.99 c -8.34,6.9 -7.051,17.09 -16.778,20.08 l -3.926,-6.54 c -4.043,-0.25 1.153,4.98 -1.328,7.56 -1.172,-4.96 -6.66,-2.85 -8.691,-8.71 -3.281,-4.58 -10.313,1.05 -12.344,6.66 3.457,3.49 11.328,5.01 13.731,8.8 l -1.27,1.23 c 7.402,9.78 10.234,-5.51 16.875,-1.75 -0.117,0.19 -0.234,0.28 -0.332,0.51 -0.43,2.22 1.719,1.78 2.793,1.59 -0.879,-1.05 -1.68,-1.67 -2.461,-2.1 5.645,-9.3 7.461,3.06 14.004,-5.41 1.719,1.76 -2.539,14.07 4.824,7.4 l -3.906,-1.33 c 4.648,-3.01 13.867,-8.96 13.516,-6.76 l 7.5,-7.76 c -4.864,-1.17 -10.801,3.15 -16.739,2.2 -5.332,-10.46 2.246,-24.53 -6.699,-32.22 l 3.047,0.45 -8.828,-2.45 c 3.594,-9.14 6.191,-0.2 12.734,-2.51 -2.558,8.92 7.832,7.92 12.383,11.21 0.84,18.76 15.273,-11.34 22.813,-1.24 l -7.676,-9 c 0.976,6.12 -7.129,5.54 -8.731,2.73 l 5.918,-4.3 c -5.722,3.17 -6.504,-4.01 -4.004,-6.62 1.114,-1.07 2.071,-1.72 2.871,-2.05 0.899,0.52 2.071,0.74 3.204,0.75"
         style="fill:#ed1c24;fill-opacity:1;fill-rule:nonzero;stroke:none"
         id="path66" /><path
         d="m 1133.87,1725.79 c -1.66,0.45 -3.34,0.54 -5.02,-0.29 2.56,0.5 4,0.49 5.02,0.29"
         style="fill:#ed1c24;fill-opacity:1;fill-rule:nonzero;stroke:none"
         id="path68" /><path
         d="m 1291.5,1736.9 1.98,5.47 0.84,-3.34 z m -8.94,-13.13 c -13.75,-2.98 -27.23,2.8 -42.64,6.68 2.37,4.26 -1.29,9.98 6.49,14.15 8.36,-2.41 -2.8,-6.54 5.52,-9.02 0.61,6.66 6.14,-2.36 8.64,-3.52 1.68,2.21 2.22,4.37 0.6,6.64 l 12.19,-0.28 -1.66,-2.19 c 6.11,-2.37 13.65,-1.4 19.24,-1.53 l -13.17,-9.69 c 1.41,-1.14 3.64,-1.22 4.79,-1.24 z m -8.56,-85.5 c -0.74,3.36 -0.07,5.53 -0.54,7.74 l 3.45,-5.66 4.71,4.21 c 3.73,-6.74 -5.14,-7.47 -7.62,-6.29 z m -9.96,-0.66 5.12,7.48 c -0.2,-4.4 0.55,-7.71 -5.12,-7.48 z m -7.16,62.72 c 1.77,2.14 0.54,7.59 5.56,5.23 1.9,-3.35 -1.01,-5.44 0.84,-8.77 z m -14.69,-91.43 c -0.63,-2.19 1.87,-3.42 4.33,-4.63 -2.11,-16.44 -16.46,-1.43 -21.54,-14.4 l 1.37,-1.19 c -3.75,-14.16 -20.3,1.07 -31.02,-6.06 0.02,-5.54 9.24,-1.61 5.43,-4.73 -3.85,2.42 -5.84,-4.1 -9.86,-6.08 -6.54,4.79 -7.27,13.66 -13.32,16.23 l 1.85,-8.98 c -9.92,5.01 -0.86,-6.55 -10.52,-2.67 l 4.57,-4.62 c 0.8,-0.61 1.58,-1.37 2.4,-2.45 l -2.4,2.45 c -5.22,3.83 -9.98,-1.43 -10.35,0.52 l 4.9,3.04 c -1.15,5.57 -11.47,7.3 -10.18,11.64 2.91,2.05 10.1,-0.61 13.93,-3.02 l 2.2,5.4 c -1.28,0.05 -3.34,1.98 -5.05,2.55 -1.47,-0.15 -2.5,-0.69 -2.8,-2.09 0.47,2.3 1.53,2.54 2.8,2.09 4.16,0.53 11.62,-2.05 13.71,3.58 l -4.51,5.76 c 5.41,-4.7 14.19,-4.1 16.6,0.18 l -10.55,2.78 c 3.77,3.07 12.75,2.62 14.57,4.69 13.79,-12.85 -12.71,-13.64 -2.09,-21.94 5.63,-0.32 10.98,6.04 14.12,6.98 -0.45,2.07 -1.58,5.42 -3.08,7.23 -1.02,0.27 -2.13,0.35 -3.07,0.85 1.13,0.75 2.17,0.23 3.07,-0.85 7.1,-1.9 15.8,0.53 21.66,5.05 l -1.37,1.18 c 11.46,3.83 16.56,16.82 23.9,24.2 l 7.31,-8.04 c -6.47,-6.32 -7.97,-15.07 -17.01,-14.65 z m -72.29,-53.6 0.2,4.45 3.4,-0.23 z m -0.25,185.18 -4.61,-4.09 -0.25,1.1 z m 1.78,-46.83 -4.98,2.51 1.23,4.28 z m 1.36,-26.24 c -1.13,-2.36 -2.56,-0.51 -4.22,1.11 -0.72,0.51 -1.4,1.02 -1.85,1.43 0.64,-0.32 1.25,-0.86 1.85,-1.43 1.35,-0.95 2.93,-1.73 4.22,-1.11 z m 17.85,19.79 c -5.01,2.43 1.63,7.54 1.74,11.89 5.9,-1.44 19.28,-6.46 10.59,-12.56 -16.47,4.15 -10.92,-15.8 -23.03,-16.22 -0.74,3.28 1.43,8.64 -4.84,6.81 l 3.88,7.42 -9.06,5.96 c 9.36,2.75 10.45,-7.12 20.72,-3.3 z m -2.61,16.46 c 1.76,2.09 2.65,3.14 5.15,1.9 3.71,-6.7 -3.12,-0.93 -5.15,-1.9 z m -0.1,15.22 c 5.49,-4.62 14.73,-15.95 22.75,-12.06 l -8.9,-4.96 c 4.65,4.12 -7.37,7.99 -11.74,12.59 -7.85,0.38 -6.62,-5.07 -10.63,-7.05 l 5.9,-1.42 c -6.05,-2.91 -10,4.89 -11.13,4.95 z m 13.77,7.96 c 3.5,-5.56 -5.43,-0.78 -7.66,-0.66 0.71,6.47 5.26,-3.52 7.66,0.66 z m 0.21,-10.87 8.15,8.3 c 1.64,-2.27 -0.08,-4.34 2.4,-5.55 -4.53,0.24 -5.92,-8.39 -10.55,-2.75 z m -18.82,-75.42 -0.26,1.14 c 3.38,-0.22 6.68,5.08 9.03,-0.52 z m 18.14,-11.97 c -2.54,1.22 -7.46,-1.78 -7.83,-5.06 -6.1,2.54 -2.13,10.02 -4.85,12.34 9.83,0.59 2.72,-2.32 12.68,-7.28 z m 10.51,-18.15 c -4.22,-0.91 -5.65,5.81 -9.03,0.5 -0.7,3.3 -1.36,6.64 3.38,5.31 -0.43,-3.27 2.97,-3.47 5.65,-5.81 z m -2.81,28.73 -6.59,4.73 c -0.39,-3.27 5.49,-4.69 -0.31,-8.74 -9.47,2.65 -2.24,15.47 -13.89,12.82 8.64,6.11 15.9,-11.87 18.89,0.07 2.56,-2.19 4.06,-1.31 5.33,-0.36 0.47,0.73 1.12,1.15 2.29,1.1 -0.82,0.04 -1.51,-0.53 -2.29,-1.1 -1.27,-1.96 -0.62,-6.22 -3.43,-8.52 z m 14.27,100.74 -15.04,-2.51 -1.01,4.4 c 1.74,11.8 12.65,-1.71 16.05,-1.89 z m -7.59,-55.07 1.3,4.26 1.88,-3.36 z m 11.64,-7.14 -10.88,3.82 c 2.28,-0.13 5.86,-1.38 7.67,0.71 -0.66,-2.18 1.88,-3.37 3.21,-4.53 z m 14.9,-42.38 c -2.68,0.95 -6.95,0.73 -9.08,-1.2 l -1.29,-2.69 c 0.04,1.15 0.52,2.04 1.29,2.69 l 3.36,6.99 z m -2.6,22.11 c 0.61,-7.73 -6.74,0.29 -8.2,-8.39 l -2.35,5.58 c -3.3,-5.31 -11.42,-3.82 -13.06,-1.54 3.06,6.42 11.7,2.7 11.77,12.55 z m 14.98,48.45 c -2.36,-1.14 -4.16,0.29 -5.99,1.91 -4.61,0.42 -0.9,-4.77 -8.99,-0.14 1.02,5.36 7.77,5.07 10.43,8.25 l -5.51,-5.22 c 1.51,-0.5 2.78,-1.74 4.07,-2.89 1.25,-0.12 3.02,-0.6 5.99,-1.91 z m 7.87,38.73 c 2.35,0.61 4.65,1.89 6.8,2.74 0.21,0.6 0.35,1.27 0.29,2.19 l 2.4,-1.4 c 2.07,0.3 3.91,-0.35 5.4,-3.18 l -5.4,3.18 c -0.85,-0.12 -1.75,-0.39 -2.69,-0.79 -0.84,-2.32 -3.54,-2.41 -6.8,-2.74 -0.86,-0.22 -1.76,-0.37 -2.65,-0.35 0.93,0.17 1.81,0.26 2.65,0.35 z M 520.918,1052.19 c 8.34,3.67 4.336,0.07 12.5,5 16.992,-11.25 10.234,18 30.195,9.53 l -3.769,-5.94 2.148,-0.39 c -3.242,-3.05 -9.179,-6.99 -9.336,-9.94 l 0.723,-1.76 c -0.625,0.53 -0.762,1.11 -0.723,1.76 l -3.301,7.99 c -4.16,-1.39 -6.835,-7.66 -13.007,-10.75 -0.098,1.1 0.761,4.22 -1.543,5.82 l 5.449,-1.09 c -12.481,9.16 -7.93,-9.35 -19.336,-0.23 z m 0.156,25.35 4.336,-0.9 -4.961,-4.57 z m -21.679,16.68 -1.68,7.05 c -10.547,-1.1 2.949,-9.51 -5.508,-10.94 l 3.438,-2.95 -14.434,6.49 c 3.809,-7.39 -6.27,-1.86 -9.356,-3.32 2.266,-1.65 2.461,-3.87 3.653,-5.24 1.953,1.74 4.101,1.25 6.308,0.74 l 1.719,-8 c -8.203,-4.79 -13.789,-1.33 -22.519,0.66 l 0.683,5.35 -10.82,1.33 c 1.543,-5.86 0.351,-4.45 0.859,-11.17 4.336,-0.96 5.157,2.11 9.453,2.26 l -0.761,-4.22 c 3.359,-1.87 7.363,1.64 7.519,-0.62 -3.652,-7.93 -7.676,2.83 -11.953,2.73 l -4.394,-12.18 3.222,-0.75 c -2.695,-7.11 -13.203,5.22 -18.125,-0.27 3.262,-0.74 7.774,-4.02 8.067,-8.44 -10.332,10.04 -9.395,-2.26 -20.703,6.96 3.359,-3.01 6.25,1.87 7.089,4.96 -5.722,4.61 -14.101,3.24 -19.16,0.02 0.352,9.82 11.621,0.6 14.336,7.67 -0.234,0.55 -0.371,0.88 -0.527,1.14 -0.274,-0.02 -0.547,-0.04 -0.821,-0.04 -0.351,-0.47 -0.859,-1.12 -1.953,-0.36 0.45,0.2 1.153,0.32 1.953,0.36 0.274,0.31 0.489,0.52 0.821,0.04 4.941,0.07 12.91,-0.83 6.074,9.7 -1.582,0.57 -2.383,0.53 -2.852,0.18 0.176,-1.39 0.274,-2.74 0.079,-3.91 0.468,-1.6 0.761,-2.85 -1.055,-1.99 0.605,0.53 0.879,1.23 1.055,1.99 -0.469,1.49 -0.977,3.28 -0.079,3.91 -0.488,3.53 -0.996,7.03 5.489,6.87 -2.5,4.96 -3.399,2.97 -6.66,3.75 l 1.933,2.82 c -2.793,8.3 -11.562,-1.68 -13.164,5.23 3.067,1.45 5.977,5.2 2.461,9.3 -1.484,-8.44 -14.141,4.37 -15.469,-6.25 -1.054,0.21 -9.863,4.49 -5.879,7.93 l 4.551,-4.32 c 6.328,0.68 3.809,5.68 11.231,6.11 l -1.231,1.39 c 5.879,7.13 7.988,11.84 14.824,10.12 0.625,0.25 1.719,-0.02 3.614,-1.27 -1.348,0.58 -2.52,0.99 -3.614,1.27 -2.695,-1.19 3.672,-13.36 -5.488,-6.78 l 3.867,-8.61 c 6.407,-0.37 15.215,-4.57 16.739,3.82 3.515,-4.08 -3.75,-6.81 -2.227,-12.59 l 1.074,-0.24 -3.984,-3.51 c 7.871,-5.08 8.515,0.27 13.125,-4.07 -0.059,0.96 -0.86,1.33 -1.172,2.78 -0.234,0.39 -0.332,0.66 -0.176,0.78 0.02,-0.31 0.098,-0.53 0.176,-0.78 1.191,-2.11 7.52,-7.54 11.23,-8.36 -9.238,8.67 0.567,19.57 -12.851,27.01 l 5.117,3.2 c 0.176,-2.24 -0.664,-5.33 1.699,-8.02 6.446,-0.41 -2.91,9.41 2.813,4.8 9.101,-20.66 20.117,2.03 30.371,-5.7 5.195,1.13 2.773,4.98 1.387,8.59 1.367,-3.63 10,-5.41 10.683,-1.09 l -1.308,2.42 17.734,-8.05 c -2.168,0.43 -4.414,1.99 -5.332,0 3.848,-7.46 11.113,-5.62 11.894,-2.46 -1.445,-7.46 -5.097,-2.26 -10.292,-3.4 3.535,-4.1 9.062,-6.32 12.304,-6.97 l -3.73,-5.9 c -7.227,-2.99 -17.715,8.03 -21.367,1.04 z m -58.497,-77.03 3.946,4.61 0.39,-5.63 z m -25.566,-16.25 c -2.617,7.24 -9.883,4.51 -7.539,1.75 -2.285,1.64 -13.359,8.68 -6.035,10.26 -1.797,-5.06 3.496,-4.1 6.719,-4.87 -1.172,1.41 0.703,5.36 -1.543,7 2.109,0.62 6.504,13.96 12.304,7.09 l 3.672,-7.48 c 17.949,-13.01 -8.437,-1.37 -7.578,-13.75 z m -27.793,34.18 0.449,8.71 1.367,-4.69 6.231,1.84 c 1.25,-2.54 1.348,-3.64 3.633,-6.41 -8.77,4.3 -3.77,-6.8 -11.68,0.55 z m -6.445,0.39 c -5.274,0.17 -7.071,-4.93 -11.739,1.7 -3.046,-1.49 -3.886,-4.59 -4.785,-7.72 0.586,7.66 -4.375,2.19 -7.754,5.2 l 1.387,-4.79 c -3.203,0.76 -8.613,2.07 -11.875,3.97 l 8.399,0.19 c -8.184,11.95 -9.551,1.25 -18.731,12.29 l 8.672,-3.23 -1.543,6.98 c 2.168,-1.61 6.66,-4.87 6.875,-8.27 11.68,-0.58 3.516,10.2 16.133,11.61 0.781,-11.25 12.441,3.67 14.121,-5.57 1.035,0.88 1.914,2.87 5.234,0.98 -12.851,1.91 3.965,-10.84 -4.394,-13.34 z m -47.637,60.99 c -2.383,3.85 -6.074,-2.93 -8.711,4.28 l 4.277,-1.02 c 0.879,2.02 -1.347,3.62 -2.46,5 9.355,1.02 9.687,10.82 22.558,7.7 -1.23,2.5 -6.758,6.05 -4.785,7.73 l 5.879,-7.96 c -8.399,-0.2 -2.793,-19.09 -12.774,-12.27 1.875,2.77 0.547,6.44 -2.734,8.28 -4.043,-2.3 -0.586,-6.41 -1.25,-11.74 z M 325.84,991.172 c -0.117,2.226 2.91,3.75 2.871,4.84 3.359,-3 -1.934,-2.852 -2.871,-4.84 z m -3.125,64.978 3.457,-5.25 -8.535,2.07 z m -12.363,95.25 c 2.5,8.13 8.027,4.59 12.168,5.79 -1.993,-1.7 -5.489,-10.71 -12.168,-5.79 z m 3.945,-29.68 -1.25,-4.89 -1.406,4.73 c 0.781,-0.23 2.07,-0.51 2.656,0.16 l 0.351,1.29 c 0.059,-0.63 -0.097,-1.02 -0.351,-1.29 z m -17.031,-18.56 c 7.285,0.35 6.269,0.65 12.089,-7.42 -6.406,1.58 -5.429,2.48 -12.089,7.42 z m -6.7,33.4 4.004,2.34 -4.433,3.25 c 5.332,-1.29 2.676,5.9 2.519,8.14 -3.203,0.8 -10.332,-1.83 -6.328,0.45 6.328,-0.45 4.59,7.62 4.317,10.96 6.972,-8.3 9.101,4.31 14.101,-5.67 4.902,-8.84 -0.156,-10.88 1.406,-17.81 -5.859,8.03 -6.347,-12.65 -15.586,-1.66 z m -10.586,1.56 5.86,-8 c -4.18,-0.1 -6.582,3.8 -5.86,8 z m -13.632,-13.04 c 4.004,2.26 3.496,8.98 8.672,9.88 4.765,-7.73 -5.743,-7.34 -8.672,-9.88 z m -3.282,194.9 c -1.25,2.44 0.567,5.17 -1.66,6.82 0.664,-6.59 -13.906,-6.16 -3.496,-17.39 l -5.625,4.65 c 5.918,2.83 -6.933,7.15 0.176,8.56 -1.602,-0.47 -3.867,5.91 -6.152,7.36 l -1.797,0.02 c 0.586,0.51 1.172,0.39 1.797,-0.02 l 2.324,0.02 c 0.547,-5.47 14.472,0.66 17.207,-6.45 z m -4.414,-7.52 3.907,2.27 c 3.535,-4.07 -0.625,-4.11 -3.907,-2.27 z m -18.535,-45.86 c 4.688,5.27 14.199,14.73 23.008,9.28 -5.664,-6.14 -17.676,-10.67 -23.008,-9.28 z m 8.828,-66.15 6.231,0.6 c 0.234,-3.34 -3.613,-6.72 -3.516,-7.85 0.664,4.22 -7.637,4.1 -2.715,7.25 z m -10.351,-25.72 c 1.504,7.22 4.922,3.1 4.121,13.12 l 8.789,-5.51 c -2.695,7.27 1.816,2.81 4.824,4.26 9.746,-17.7 -12.871,-7.66 -17.734,-11.87 z m -9.082,-3.17 c 2.109,-0.55 4.258,-2.19 5.215,-0.23 l -2.325,2.77 c 2.325,-2.77 12.696,-3.2 14.336,-10.2 -5.8,6.96 -11.601,1.88 -17.226,7.66 z m -7.461,144.81 c 4.101,0.03 16.758,-2.11 10.781,5.82 l 7.949,-7.39 c -0.722,-3.04 3.516,-4.1 3.828,-7.34 -10.449,0.43 -10,-3.95 -17.851,-8.4 2.91,2.46 -0.293,14.02 6.933,14.38 -4.55,4.29 -7.226,-0.36 -11.64,2.93 z m -10.02,-133.79 -3.164,0.82 c 0.039,0 0.078,0.04 0.117,0.04 -3.261,-0.24 -3.183,-5.79 -4.882,-5.37 4.765,5.33 -8.633,4.43 -2.813,9.47 2.461,-5 4.238,-1.06 6.231,-0.55 2.656,5.9 6.992,3.69 12.128,3.44 -6.015,-1.68 -6.835,-4.69 -10.664,-6.99 0.782,0.07 1.758,-0.08 3.047,-0.86 z m -25.371,-19.67 c -1.758,-3.89 -0.351,-8.65 -0.039,-13.13 -1.875,-3.26 -4.707,0.32 -6.484,0.55 l -1.621,-2.79 c 0.175,2.38 0.781,2.91 1.621,2.79 l 1.152,1.97 c -6.094,-1.75 -7.949,9.77 -10.293,13.62 l -4.98,-3.05 5.683,-7.03 -6.406,2.79 c 0.234,-3.28 5.781,-8.08 8.711,-5.55 l -2.441,-9.21 c -6.016,12.5 -11.485,0.93 -21.153,4.72 1.094,-0.27 2.246,-1.7 2.305,-2.81 -6.465,2.91 -4.746,8.91 -10.723,5.12 3.477,-6.37 -4.961,-3.99 2.715,-10.47 -6.953,-4.57 -0.371,6.62 -7.676,6.48 -2.031,-0.54 0.215,-3.36 1.348,-4.72 -3.203,0.91 -4.082,-1.06 -7.207,-1.25 1.094,-1.37 2.344,-3.89 4.375,-3.34 -3.203,0.86 -5.234,0.37 -6.152,-1.55 l 1.132,-1.46 -7.285,-0.1 c -1.211,3.63 -1.523,8.01 -4.844,11.09 8.497,-2.36 15.547,1.1 19.317,6.57 -1.094,1.38 -1.387,5.82 -4.531,5.56 10.644,-4.04 7.89,6.47 11.621,12.97 3.379,-4.16 4.297,-1.21 7.207,0.22 -3.633,7.56 -7.657,6.42 -13.379,14.51 -1.875,-2.76 -1.817,-3.85 -6.153,-1.54 l 4.747,6.28 c 7.226,-13.92 15.976,5.63 25.507,1.98 -2.617,-5.88 -11.367,0.84 -5.254,-11.72 l -7.304,1.89 c 0.39,-5.5 6.621,-6.05 10.117,-11.36 8.203,0.04 -0.527,6.7 2.266,10.31 l 2.461,-5 7.968,3.36 c 9.297,-13.38 24.18,-5.2 29.61,-8.79 -5.118,-0.84 -12.071,-4.51 -15.938,-7.91 z m -60.527,-41.19 c 4.316,-2.31 3.965,3.24 7.148,2.34 0.176,-3.28 -3.847,-5.43 -7.148,-2.34 z m -11.504,1.09 c -5.449,4.77 -4.063,-1.03 -4.492,5.59 2.929,3.57 7.539,-4.3 9.316,0.62 -3.301,3.13 -3.476,5.31 -1.523,8.05 0.195,-3.32 6.797,-9.49 1.523,-8.05 l 4.414,-4.45 z m 8.926,29.77 c 2.011,0.19 4.218,-0.35 5.879,-1.41 -1.231,-0.55 -3.672,0.51 -5.879,1.41 -1.836,-0.2 -3.496,-1.02 -4.375,-2.85 -1.504,4.88 1.25,4.06 4.375,2.85 z m 0.078,24.04 2.617,7.87 5.488,-4.75 z m 11.055,19.65 c -7.149,-0.26 1.933,1.66 -3.575,6.38 3.047,0.32 4.473,-4.43 3.575,-6.38 z m -0.45,95.25 4.746,0.18 0.469,-5.53 c -0.781,-0.66 -2.09,4.45 -5.215,5.35 l -2.422,-0.12 c 0.938,0.36 1.7,0.32 2.422,0.12 z m 23.965,-80.78 c -2.324,2.79 -3.945,-2.23 -5.996,-2.73 0.781,3.04 4.922,3 -0.469,6.64 5.02,0.86 8.321,-2.19 11.075,2.5 l 4.648,-6.66 c 9.805,6.15 17.871,20.31 34.199,22.59 l -3.437,4.15 c 6.797,-7.15 3.925,2.24 7.109,1.42 l 3.438,-4.12 c -5.704,-6.13 -15.176,-15.61 -16.426,-26.15 -3.223,1.89 -14.395,1.56 -17.149,-3.07 0.371,-0.16 0.528,-0.12 0.918,-0.37 l -0.996,0.27 c 0.02,0.06 0.039,0.06 0.078,0.1 -8.847,4.18 0.43,-12.23 -10.586,-10.39 3.75,4.45 -6.933,9.41 -11.757,5.27 3.769,-8.63 -6.172,0.55 -3.497,-7.81 l -9.843,8.09 c 1.816,2.77 16.211,2.22 18.691,10.27 z m -14.043,103.32 3.711,3.28 c 3.516,-6.91 -1.367,-3.32 -3.711,-3.28 l -1.172,-1.01 c -0.019,-0.4 0.117,-1 0.332,-1.66 1.016,-0.96 1.875,-1.94 2.793,-2.41 0.586,-0.04 1.133,-0.08 1.524,-0.17 -0.567,-0.14 -1.055,-0.06 -1.524,0.17 -0.937,0.16 -1.972,0.51 -2.734,2 -0.059,0.19 -0.02,0.23 -0.059,0.41 -0.39,0.33 -0.722,0.66 -1.113,0.97 l 0.781,0.69 c 0.039,0.82 0.508,1.05 1.172,1.01 z m 1.66,36.04 c 1.153,-1.39 4.395,-3.34 8.379,-2.25 l -4.726,-4.14 c 0.859,1.95 -1.387,3.61 -3.653,6.39 z m 17.95,-5.8 c -6.407,2.73 -4.336,2.18 -5.879,7.93 z m 7.207,20.58 6.425,-2.77 -11.679,4.1 z m 5.742,14.49 -0.996,-0.82 c -0.43,4.38 8.437,-2.18 12.578,-2.15 -0.078,0.51 -0.156,1.33 -0.469,2.08 -0.781,0.72 -1.484,1.36 -1.992,1.71 1.055,-0.27 1.64,-0.97 1.992,-1.71 2.656,-2.43 6.406,-5.67 7.637,-1.82 l -1.153,1.35 4.297,-2.15 1.563,4.88 c 4.414,-12.85 -11.465,-8.75 -19.551,-9.84 0.293,-2.82 1.582,-8.17 3.184,-9.38 0.312,-0.08 0.644,-0.33 0.879,-0.25 -0.313,-0.08 -0.586,0.06 -0.879,0.25 -2.246,0.63 -6.133,4.92 -9.082,6.64 1.699,3.81 5.566,6.02 1.992,11.21 z m 36.582,-137.34 c -0.488,-1.09 -1.406,-1.02 -2.324,-0.7 -0.567,-0.2 -1.172,-0.08 -1.797,0.66 0.449,-0.08 1.113,-0.43 1.797,-0.66 0.546,0.21 1.054,0.74 1.562,1.4 l -2.578,2.31 5.059,0.9 c -0.86,-0.75 -1.661,-2.11 -2.481,-3.21 z m 34.121,131 -5.449,2.42 3.906,2.2 z m 25.449,-15.96 7.207,-9.26 -5.215,0.27 z m -1.387,-70.35 c 0.098,-1.1 3.438,-3.01 2.442,-3.83 l -6.582,3.79 z m -4.57,78.24 4.844,3.07 0.332,-3.3 z m -1.445,-37.03 -0.469,4.37 c -1.172,1.41 -1.895,-1.64 -2.969,-1.4 l 0.742,3.04 c 2.227,-1.64 7.637,-4.02 2.696,-6.01 z m 43.222,-208.93 -4.277,1.06 c 0.723,4.18 -4.902,8.84 0.371,8.63 2.305,-2.75 4.727,-6.58 3.906,-9.69 z m 19.063,24.9 c -0.176,-2.05 -0.938,-2.69 -1.875,-2.85 1.445,-1.44 3.906,-3.08 4.551,-4.33 l -10.723,2.58 c 1.152,3.43 4.18,1.42 6.172,1.75 -1.426,1.45 -1.797,2.62 1.875,2.85 z m -41.875,269.26 -3.008,-0.34 -2.91,7.1 z m -98.164,-1.54 -2.11,0.57 c 2.696,3.56 2.227,7.9 6.348,7.89 l 5.977,-7.91 c 6.328,7.94 9.218,-9.83 15.859,-4.05 l -4.297,4.37 c -0.859,0.72 -1.719,1.55 -2.617,2.7 l 2.617,-2.7 c 8.106,-6.68 13.809,4.57 16.094,1.11 l -1.211,1.35 c 5.469,15.64 17.578,-2.14 26.953,5.25 -0.39,3.31 14.824,4.03 6.406,14.54 7.754,-5.01 14.922,2.96 19.395,8.34 l 0.644,-5.54 c 3.262,-2.75 5.411,3.29 4.532,6.02 -0.41,0.18 -0.84,0.34 -1.25,0.72 l 1.093,-0.24 c 0.079,-0.12 0.079,-0.32 0.157,-0.48 4.101,-1.78 7.812,5.79 12.949,1.7 -5.879,-1.79 -0.684,-10.54 -7.07,-9.04 1.504,-3.57 7.461,-10.3 8.105,-7.25 -0.801,-1.95 3.34,-10.39 0.82,-15.2 -1.972,-0.21 -5.449,1.68 -7.07,2.64 -0.176,0.1 -0.273,0.1 -0.449,0.18 -0.781,0.57 -0.43,0.33 0.449,-0.18 5.762,-2.89 1.152,5.27 6.016,6.21 -7.285,0.59 -9.121,7.45 -17.285,7.19 -0.098,-7.46 5.234,-1.18 5.937,-6.7 -6.738,4.8 -10.918,-2.82 -15.293,-0.74 2.149,-0.52 3.691,-5.17 6.504,-2.59 l 1.934,-7.94 c -3.907,-1.24 -1.289,2.45 -4.551,4.25 -3.203,0.76 -9.61,3.35 -7.91,-2.42 2.343,-2.69 4.98,-7.62 6.582,-3.71 l 2.07,-9.06 c 5.273,-1.25 12.93,-5.18 13.594,-2.11 l -2.539,3.83 c 2.793,2.56 6.621,-3.68 8.457,-1.96 l -4.864,-2.11 c -2.617,-3.67 1.954,-8 6.309,-10.07 -0.898,7.73 6.074,0.74 10.43,-1.33 l 4.238,7.65 c 9.883,3.09 13.867,-4.25 21.836,-1.72 -1.328,2.41 -3.301,1.8 -5.41,2.27 6.855,2.73 7.754,12.23 19.433,9.56 l -2.246,1.61 c 3.34,-1.85 10.489,-1.3 8.887,3.37 15.293,-6.61 -12.188,-10.16 3.027,-16.77 -1.289,2.43 2.188,-0.5 2.051,0.59 1.192,-1.37 2.227,-1.56 2.5,-3.75 -3.437,2.89 -5.82,-3.03 -6.68,3.61 -2.753,-2.61 -3.281,-6.81 -1.816,-10.37 1.035,-0.21 1.992,0.67 3.086,0.39 l -2.559,-4.76 -1.582,4.65 c 1.426,-3.56 -14.199,-2.23 -7.05,-10.28 l -5.957,6.74 c 0.488,-4.43 -5.84,-2.99 -8.77,-4.51 5.312,-1.17 1.699,-5.76 3.027,-8.2 -7.539,2.79 -10.371,-8.44 -15.293,-10.55 2.891,-7.17 6.368,-1.51 8.496,-1.95 -5.957,-1.92 -2.07,-9.26 -9.238,-9.79 0.02,-0.1 0.078,-0.18 0.098,-0.29 l 2.168,-1.33 c -0.86,-0.78 -1.875,0.27 -2.168,1.33 l -3.34,2.09 c -2.207,-1.98 -6.973,-2.09 -6.855,-4.55 l 1.503,-2.86 c -1.074,1.25 -1.484,2.15 -1.503,2.86 l -1.094,2.07 c -3.457,2.95 -3.985,-1.25 -5.977,-1.88 l 3.672,-5.19 c -8.574,3.08 0.469,13.98 -9.551,11.99 l 1.797,-6.92 c -0.176,-8.55 -7.461,1.82 -11.172,-2.65 -2.91,8.2 7.793,5.54 2.735,13.24 -2.149,1.6 -2.91,-1.41 -5.137,0.18 -0.215,2.16 0.508,5.25 -1.777,6.85 l -1.641,-3.87 c 0.254,7.41 5.898,11.57 6.23,17.93 -8.613,-5.54 -11.738,12.43 -20.664,10.24 1.348,-2.56 -5.742,-13.6 -11.875,-4.59 0,0 2.95,1.66 5.879,3.34 2.852,1.74 5.742,3.47 5.742,3.47 -7.695,4.97 -19.257,6.76 -28.789,9.18 -3.906,-2.14 -4.628,-5.19 -7.265,-9.8 l -4.531,4.34 c -8.047,-2.23 4.668,-5.45 1.015,-9.85 -7.988,7.38 -17.363,-1.95 -27.754,9.22 3.418,-3.24 0.274,-3.63 -2.324,-4.28 0.488,-0.95 0.195,-1.54 -2.266,-0.91 0.489,0.43 1.348,0.7 2.266,0.91 -1.269,2.37 -8.066,7.43 -4.941,5.14 2.851,2.42 8.691,-4.43 7.773,4.36 -1.309,2.46 -3.535,4.08 -6.582,3.8 l 3.887,2.19 -11.133,8.18 c 1.855,1.63 8.555,-3.27 5.879,2.74 z m 22.773,60.14 c 0.996,-0.29 3.086,-0.78 4.414,-3.23 l -4.902,-0.9 z m 27.364,15.79 c 11.211,-8.02 -6.504,-4.89 -1.446,-12.47 -2.383,2.74 -3.73,-2.27 -6.621,-3.73 l -6.367,10.04 c 2.266,-1.6 5.215,-1.25 3.926,1.2 -1.192,1.32 -2.227,1.57 -4.336,2.11 z m 15.683,-60.33 -5.879,-1.86 c -0.293,2.23 0.489,4.2 0.254,6.39 z m -6.64,84.7 c 1.171,-1.35 2.539,-3.81 5.527,-3.42 -2.988,-0.39 -5.684,-2.91 -8.418,2.01 z m 23.925,-67.4 -2.617,-3.65 -3.418,2.97 z m 26.856,45.98 c 1.347,-2.4 3.574,-3.99 2.812,-5.91 -2.226,1.57 -7.675,3.85 -2.812,5.91 z m 8.457,-49.88 c 2.5,-3.76 3.965,-7.32 -0.117,-7.45 -2.5,3.78 0.507,4.16 0.117,7.45 z m 7.031,41.05 c -0.723,-1.99 -2.012,-8.03 -6.504,-4.89 1.836,1.7 3.516,4.5 6.504,4.89 z m 9.043,-6.3 c 2.715,-4.87 -7.441,-5.77 -9.961,-1.99 2.246,5.87 9.883,-5.45 9.961,1.99 z m 4.375,13.89 1.602,-12.07 -10.411,8.74 c 5.43,-2.27 9.532,-2.14 8.809,3.33 z m 2.051,8 3.73,-5.04 -6.699,3.61 c -1.289,2.4 2.168,-0.49 2.969,1.43 z m -9.453,-54.25 -5.43,2.3 c 0.801,1.94 2.871,1.46 2.598,3.67 -0.743,-1.96 1.504,-3.55 2.832,-5.97 z m 17.422,8.85 c 0.664,3.07 5.605,12.63 12.851,4.59 2.227,-1.52 -8.496,-6.64 1.231,-9.89 -3.809,-2.34 -9.004,-2.25 -9.375,-7.49 3.3,-1.81 7.187,-8.03 9.843,-4.34 0.508,4.17 2.071,8.09 4.336,6.53 -3.984,-1.24 -0.664,-3.06 0.821,-6.64 3.281,6.77 5.41,6.29 6.875,11.36 7.597,-2.8 6.289,7.09 15.273,1.91 l 1.758,-5.69 -4.805,5.3 c -7.207,-0.54 -12.715,-14.29 -23.086,-14.11 1.641,-4.63 6.719,-12.19 1.68,-13.21 -0.703,5.5 -4.453,10.63 -8.984,13.78 -4.766,-3.2 0.976,-7.7 4.609,-11.73 -4.688,4.26 -7.227,-0.56 -12.871,3.96 0.234,-2.21 -0.371,-5.28 2.519,-3.76 -8.769,-4.44 -18.32,-10.91 -29.238,-5.14 l 5.645,4.02 c 0,0 -1.133,1.36 -2.227,1.59 10.957,2.85 14.375,8.51 23.867,14.96 -4.511,3.13 -8.476,1.87 -13.379,8.37 3.379,5.59 16.621,-1.65 19.16,3.1 -1.328,2.44 -4.687,4.25 -6.503,2.53 z m 22.246,144.95 -6.641,-3.77 c -2.598,3.71 5.742,2.95 -1.133,7.56 3.203,-0.66 6.446,-1.41 7.774,-3.79 z m 39.961,-444.7 c -4.59,4.33 6.328,0.68 0.527,6.38 3.047,1.47 3.437,-2.98 4.609,-4.35 z m -14.297,6.56 c 1.582,-6.87 -9.336,-2.15 -6.641,-9.34 -5.996,-4 -12.012,-8.04 -17.851,-1.17 l 1.152,-1.36 -6.563,3.71 c 1.739,3.98 6.836,6.01 10.879,8.3 10.391,-11.16 12.012,8.08 19.024,-0.14 z m 4.648,210.82 c 1.856,-6.91 -8.769,-4.57 -10.254,-1.01 z m -4.062,130.13 8.691,-2.95 c -2.637,-3.67 -9.766,3.16 -6.758,-3.85 l -5.918,5.53 c 2.149,-0.46 5.332,-1.16 3.985,1.27 z m 18.945,-443.02 c -4.961,-4.3 -4.141,-16.64 -12.012,-10.41 l -0.39,5.64 c 5.449,-1.28 4.55,11.02 12.402,4.77 z m -9.258,66.95 c -7.129,-3.79 -17.031,0.73 -26.777,4.12 -4.024,-2.32 6.543,-3.73 1.64,-6.93 0.02,0.02 0.079,0 0.098,0.02 17.363,5.49 12.305,-23.71 27.402,-14.22 -13.574,-10.76 -16.972,14.77 -27.402,14.22 -0.058,-0.02 -0.098,-0.02 -0.137,-0.02 0.02,0 0.02,0 0.039,0 -1.835,-0.12 -3.808,-0.94 -6.152,-2.95 -9.394,12.09 6.563,10.49 12.598,14.51 -2.344,2.76 -2.539,5 -3.692,6.33 3.438,-2.97 6.465,-1.48 6.114,2.97 -0.45,-7.54 5.586,-3.55 10.859,-3.63 l -4.453,3.16 c 1.68,0.53 5.058,-2.26 7.187,-1.09 -0.175,0.78 0.118,1.31 1.192,1.33 -0.313,-0.71 -0.723,-1.1 -1.192,-1.33 0.528,-2.19 5.118,-6.41 8.34,-7.97 -5.215,-1 -5.84,6.82 -10.722,1.42 6.777,-4.84 1.445,-4.74 5.058,-9.94 z m 16.426,81.12 -6.836,5.91 c 2.637,4.89 8.75,-4.14 6.836,-5.91 z m 14.883,186.89 -6.543,2.5 6.113,0.82 z m -56.68,237.57 -2.695,0.92 2.578,2.62 c 0.332,-1.31 0.234,-2.43 0.117,-3.54 l 3.848,-1.32 c 0.293,0.11 0.605,0.06 0.976,-0.32 l -0.976,0.32 c -0.684,-0.2 -1.192,-1.29 -1.797,-1.89 11.074,-11.77 6.23,11.41 17.871,2.72 2.266,-7.82 3.711,-3.93 -1.895,-6.99 0.743,-2.56 1.7,-3.9 2.676,-4.86 0.059,0.02 0.078,0.02 0.156,0.03 -0.039,0 -0.097,-0.01 -0.156,-0.03 2.031,-2.06 3.965,-2.45 3.516,-8.04 -4.043,-6.63 -1.738,-8.16 -2.637,-15.39 l 1.992,0.31 c 0.117,0.84 1.114,1.21 3.985,0.64 l -3.985,-0.64 c -0.351,-2.26 6.075,-8.11 2.617,-9.72 3.165,5.72 10.528,-2.14 17.032,-4.48 6.679,-3.46 3.711,8.82 8.496,4.68 v -6.4 l 8.437,4.78 c -0.683,-8.4 -13.066,-8.07 -17.304,-13.62 l -0.157,7.48 -13.73,2.76 2.461,-2.64 -9.492,1.95 1.289,5.01 c -1.836,-1.72 -8.477,1.69 -6.524,-3.99 -5.8,4.37 -7.539,8.99 -10.215,19.07 l 6.192,-6.59 c 1.758,1.78 10.723,-9.58 9.062,0.33 -6.797,-1.82 -10.488,8.47 -11.386,13.98 15.566,-14.04 3.359,6.98 8.984,10.14 -3.613,-0.93 -7.773,-1.26 -10.059,-3.58 l -3.886,5.03 c -20,4.06 7.363,-7.88 -0.293,-16.88 -6.485,2.38 -7.032,12.01 -12.969,11.12 -8.438,1.75 1.113,-12.99 -7.91,-7.86 -2.93,12.93 14.531,14.96 15.781,24.89 z m 40.703,-8.87 -4.746,-2.24 -1.777,4.61 z m 17.207,-29.88 -0.234,1.12 2.461,-2.6 -7.598,2.55 z m 17.949,-236.16 c 7.52,-10.24 7.793,4.76 15.567,0.99 0.312,-2.2 0.703,-5.52 2.031,-7.98 -3.516,-5.75 -18.281,3.82 -20.312,-5.4 -4.161,8.42 4.824,3.29 2.714,12.39 z m 8.418,83.99 c -0.293,2.2 -6.386,8.8 0.059,7.45 -1.855,-1.75 5.02,-6.34 -0.059,-7.45 z m -7.48,97.42 c 3.027,0.46 12.383,-6.66 10.293,0.14 5.859,-5.47 -2.93,-6.69 -2.227,-10.61 0.821,-0.66 1.602,-1.61 2.305,-3.3 -1.582,1.34 -2.129,2.37 -2.305,3.3 -3.105,2.48 -6.933,-0.85 -9.882,2.24 2.675,2.7 -1.915,5.75 1.816,8.23 z m 18.457,-176.88 3.848,-6.21 -4.805,5.31 z m 8.32,-242.21 c 0.313,-3.36 -2.793,-4.86 -4.785,-6.62 l 2.735,5.98 c -1.29,2.5 2.05,0.64 2.05,0.64 z m 3.653,85.18 c 1.23,-1.37 7.324,0.66 8.847,-4.03 -4.414,1.96 -11.621,0.2 -12.91,2.7 2.031,0.72 1.836,2.91 4.063,1.33 z m -2.989,228.06 6.211,0.85 -2.422,-5.88 c -0.253,2.18 -5.41,1.08 -3.789,5.03 z m 37.891,-304.78 2.227,-1.52 -3.907,-3.68 -1.152,1.35 z m 9.375,78.63 c 6.367,-0.19 9.023,-16.09 -0.801,-13.05 -8.086,6.02 3.653,5.86 0.801,13.05 z m 13.906,-54.59 c 2.793,-7.17 -6.875,-6.35 -7.09,-4.12 3.028,1.64 -1.386,3.65 -2.695,6.13 2.266,-1.58 8.086,-7.18 9.785,-2.01 z m -490.3123,-30.17 -0.2344,4.45 6.25,-0.74 z m -13.3984,-16.78 c -6.3281,2.89 0.8398,2.99 -2.4805,7.21 l 5.1953,-1.49 c -0.8984,-1.91 -5.9961,-2.64 -2.7148,-5.72 z m 83.3987,86.78 c -2.422,5.03 4.14,-0.04 6.23,0.45 -2.871,-3.54 -1.152,1.4 -6.23,-0.45 z m -4.766,60.86 c -1.016,-1.16 -2.519,-3.01 -4.883,-0.86 2.11,5.93 2.969,0.43 4.883,0.86 0.449,0.5 0.801,0.89 1.094,0.82 -0.391,-0.51 -0.742,-0.75 -1.094,-0.82 z m 1040.274,337.74 -3.36,5.7 6.45,0.73 z m -2.87,-72.94 -2.95,9.08 c 2.5,-1.3 5.62,-0.36 7.15,-2.72 -6.25,-1.8 3.36,-5.76 -4.2,-6.36 z m -9.86,27.28 6.25,-3.74 c -4.03,-1.95 -6.25,3.74 -6.25,3.74 z m -6.29,78.73 -6.57,4.86 5.63,-0.38 -2.81,7.88 c 2.95,-3.46 7.16,-2.67 8.69,0.56 l -7.39,3.74 c 1.98,0.97 11.65,-2.91 14.34,-5.29 l -1.43,6.69 c 4.22,0.83 4.07,-3.53 6.78,-5.91 l -4.67,1.39 c 0.71,-3.33 1.14,-5.59 4.77,-6.85 -5.61,0.32 -17.03,2.12 -17.34,-6.69 z m -16.49,15.38 5.59,-0.38 c 1.6,-2.3 -1.55,-3.13 2.07,-4.5 -1.53,-3.18 -10.06,0.63 -7.66,4.88 z m -3.05,-6.38 c 12.92,1.36 -0.52,-7.67 8.6,-9.33 -7.81,0.48 -6.76,5.9 -8.6,9.33 z m 116.9,156.37 c 8.57,5.28 -8.87,9.02 -4.79,14.43 3.91,-6.66 6.12,1.97 6.7,-0.21 1.47,-2.62 1.04,-7.8 3.25,-11.59 1.03,0.34 1.91,-0.11 2.61,-2.86 -1.15,0.77 -1.97,1.77 -2.61,2.86 -1.45,-0.5 -3.21,-2.7 -5.16,-2.63 z m 117.44,-52.13 -4.26,-5.53 c 3.15,4.1 1.68,6.09 -0.31,8.16 l -16.87,9.75 c 0.82,-2.68 4.19,-4.24 6.85,-7.77 -3.65,-3.29 -13.44,-4.22 -15.1,2.46 h -0.04 l -3.36,-4.37 c -9.21,1.28 -6.4,7.89 -14.21,12.44 -1.35,5.57 3.65,3.28 4.23,5.47 0.49,-6.63 9.5,-6.84 6.41,-12.33 3.54,-1.28 5.61,-1.53 6.93,-1.21 l 0.02,0.02 0.02,-0.02 c 3.4,0.83 1.8,5.38 5.08,7.15 l -27.13,15.66 1.98,-4.73 -4.5,4.54 0.88,1.15 -16.58,9.56 -4.34,-1.47 2.11,2.77 -11.42,6.59 c -8.36,-8.77 -13.87,-21.31 -24.65,-28.37 l 7.25,15.23 -7.52,3.51 c 3.32,-0.09 4.98,2.08 4.14,5.38 l -9.44,-1.92 10.3,7.43 -2.8,2.28 7.78,4.19 -0.55,1.2 -27.75,16.04 -1.49,0.04 -4.37,-8.65 c 8.88,-0.27 9.74,-7.96 13.32,-13.58 l -10.24,1.43 c -7.77,0.21 -18.49,-9.37 -14.63,-20.46 10.28,-5.89 26.88,-1.94 27.11,10.17 -0.52,-6.59 3.89,-6.72 8.07,-5.7 -1.39,-3.3 -9.71,-5.24 -1.93,-9.9 l -12.23,0.36 1.95,-7.78 -10.53,6.94 c -2.01,-2.7 -9,-3.56 -8.2,-6.95 1,0.44 1.62,0.06 1.58,-2.52 -1.01,0.99 -1.44,1.79 -1.58,2.52 -2.44,-0.98 -7.07,-6.46 -10.43,1.31 l -11.23,-9.15 -9.92,9.17 c 4.02,1.92 2.13,5.25 -0.9,8.69 -6.23,-1.85 -4.67,-8.41 -13.16,-10.1 -0.76,3.29 5.56,9.4 -3.09,13.12 -7.91,-3.87 1.95,-13.05 -9.51,-11.31 2.15,-4.47 -4.94,-7.31 -2.54,-12.82 l 6.88,-5.83 c -6.51,-0.72 -5.4,-10.48 -6.86,-13.7 -2.62,-1.27 -6.21,1.73 -10.1,3.12 2.19,-1.43 -1.5,-5.68 4.14,-6.02 l -8.96,0.54 3.01,-3.44 -6.37,-6.11 c 7.34,-8.04 8.24,2.77 11.09,4.77 l 6.56,-4.7 -9.08,-13.62 13.34,4.64 c 0.86,-8.8 9.3,-7.08 10.78,-13.71 -2.89,-2 -13.69,1.87 -9.96,-4.85 l -5.74,5.8 c 3.71,-16.62 -9.65,-21.25 -16.02,-27.4 l -10.01,0.6 c -8.36,-7.09 -10.84,-21.15 -25.3,-20.18 l -5,-7.34 9.08,-33.87 c 1.61,2.04 3.62,3.95 6.18,3.18 2.48,-3 -2.62,-3.88 -1.64,-6.35 0.29,-0.24 0.62,-0.67 1.03,-1.36 -0.59,0.51 -0.86,0.96 -1.03,1.36 -1.27,1.18 -1.78,-1.1 -3.11,-2.09 l 13.44,-50.15 c 1.01,-0.99 1.97,-1.97 2.75,-2.93 0.47,-1.07 -0.23,-1.62 -1.44,-1.99 l 5.6,-20.82 0.28,0.3 c 0.19,-0.82 0.25,-1.79 0.37,-2.75 l 0.74,-2.75 c 0.31,-0.55 0.74,-1.03 1.37,-1.34 -0.41,0.31 -0.79,0.45 -1.2,0.67 l 4.97,-18.5 -91.25,-153.02 156.23,-89.45 47.75,-178.25 -178.22,-47.77 -160.12,90.29 -93.535,-158.26 -178.223,-47.731 -38.125,142.261 c -0.586,-0.47 -1.192,-1.17 -1.817,-2.22 3.477,-2.89 0.254,-3.44 3.77,-6.33 -3.086,-1.64 -8.457,-15.12 -18.613,-8.67 0.82,3.2 2.695,6.21 6.211,2.15 0.859,3.16 -3.887,8.59 -7.051,8.08 -6.152,-3.24 -15.078,0.82 -14.141,-10.62 -3.437,2.93 -4.511,3.18 -7.578,1.52 1.192,-1.33 1.27,-2.5 3.34,-1.78 l -4.023,-3.59 c 0.351,-0.39 0.566,-0.72 0.781,-1.06 0.586,-0.13 1.094,-0.29 1.523,-0.5 -0.761,-0.69 -1.015,-0.26 -1.523,0.5 -2.871,0.69 -7.344,0.26 -8.633,-1.62 0.742,-0.7 1.133,-1.75 0.762,-3.51 -1.328,1.52 -1.387,2.67 -0.762,3.51 -2.402,2.35 -8.75,0.71 -7.324,3.77 13.633,6.74 29.883,15.02 39.511,28.69 -0.488,0.06 -1.171,0.2 -1.796,0.2 l -1.407,-0.74 c -0.058,0.64 0.625,0.78 1.407,0.74 l 4.746,2.5 0.605,-6.8 c 5.801,3.69 7.832,6.41 7.813,11.49 l -24.727,92.26 -4.629,2.54 c -6.289,-0.98 1.641,-5.84 0.899,-9 -5.45,1.11 -7.52,0.37 -11.094,4.43 l 5.41,-1.09 c -4.766,5.35 2.617,6.09 -3.359,12.81 l -5.118,-2.3 c -8.906,3.98 6.836,6.36 -4.14,9.64 2.441,5.75 12.265,4.16 15.781,6.29 l -63.672,237.66 -3.261,0.64 2.246,3.16 -45.684,170.34 -3.574,3.33 c -1.778,-1.79 -1.446,-3.98 -1.074,-6.17 0.937,-0.98 2.656,-3.27 4.277,-4.11 0.547,-0.16 1.074,-0.22 1.582,-0.21 -0.488,-0.16 -1.035,-0.05 -1.582,0.21 -3.77,1.15 -8.086,6.21 -9.922,0.97 -0.547,3.3 -0.156,7.47 -2.637,10.06 5.352,-2.72 7.774,4.47 10.528,4.94 l -3.575,13.32 14.004,24.24 -2.089,-1.81 -1.114,6.58 c -0.429,0.07 -0.879,0.09 -1.347,0.09 -0.762,-0.94 -1.739,-1.39 -3.204,-0.75 -0.566,-0.36 -1.054,-0.77 -1.25,-1.41 5.86,-4.29 -2.089,-5.9 5.528,-8.4 -2.481,-3.76 -8.399,-11.06 -15.703,-4.42 0.586,-3.24 0.039,-6.31 2.324,-7.78 -13.262,5.76 -7.188,-12.32 -12.637,-10.2 -3.359,1.71 -6.894,4.54 -9.726,2.99 l 3.75,-3.93 c -3.008,-0.48 -2.5,2.59 -4.805,4.09 l 6.875,1.8 c -11.25,0.16 -14.668,14.54 -27.344,17.11 l 5.43,4.16 c -11.289,6.46 -14.492,-10.78 -25.078,-2.31 11.894,1.77 -7.774,10.04 -1.153,12.87 -8.652,9.14 -21.875,3.46 -28.476,0.6 -2.266,1.54 -7.285,-4.8 -8.457,-9.79 -3.145,0.64 -7.363,7.86 -8.379,1.74 1.387,-2.39 3.672,-3.93 6.641,-3.51 0.566,-9.62 -9.903,5.2 -12.071,-0.57 -1.25,1.34 -10.781,-10.05 -19.59,-5.94 -0.507,3.24 12.129,14.86 15.411,19.41 -1.524,2.58 -2.793,3.81 -4.043,3.94 l -84.532,-146.33 3.789,1.61 -4.648,-3.1 -23.34,-40.48 c 0.078,-0.27 0.215,-0.48 0.234,-0.79 -0.468,-1.24 -1.035,-1.64 -1.64,-1.6 l -18.262,-31.62 c 2.246,-1.05 5.645,-0.49 7.774,-2.96 -5.547,3.55 -2.598,-4.64 -4.551,-5.18 -2.969,1.67 -2.071,4.93 -3.535,7.58 l -23.594,-40.89 3.047,-0.82 h -3.496 l -35.625,-61.62 c 5.957,-3.94 8.496,-0.58 10.019,4.12 l -2.109,0.55 c 5.254,9.33 6.719,4.67 12.07,12.89 l 5.723,-6.89 c -4.649,-4.13 -5.723,-14.59 -13.672,-16.74 -3.906,8.55 -2.656,-4.69 -8.067,-1.06 l -4.218,6.68 -34.9026,-60.47 c 7.9883,3.6 13.1246,14.73 23.8676,19.07 l 2.695,-7.19 5.957,1.62 c -6.953,-2.44 1.562,-5.84 -6.836,-3.61 -0.781,-3.01 3.34,-3.01 4.57,-5.47 l -4.16,1.05 c -2.578,-5.78 4.629,-6.6 8.887,-8.83 -1.563,-4.98 -4.16,-10.78 -8.262,-10.8 -4.512,5.57 -3.32,3.07 -6.894,9.42 l -4.922,-1.86 c 1.113,-1.44 1.23,-2.54 2.168,-1.72 0.468,-5.52 -19.4534,0.98 -6.4652,-8.01 -3.1445,0.86 -11.7382,6.49 -12.2851,13.13 -0.2149,-0.2 -0.3711,-0.47 -0.5664,-0.68 l -0.5078,-0.92 0.1953,-0.35 c -0.1172,0.07 -0.2149,0.07 -0.332,0.13 l -3.8282,-6.62 c -0.9179,-2.58 -1.5429,-5.27 -1.8554,-7.93 0.3711,-0.15 0.7031,-0.23 1.0937,-0.43 l -1.0937,0.32 c 0,0.03 0,0.07 0,0.11 -0.8008,0.35 -1.543,0.59 -2.2852,0.76 l -45.9961,-79.66 c 5.3516,-0.51 11.1719,-1.64 16.7969,-2.78 5.3906,12.58 15.8594,9.57 21.6015,16.57 l -2.1289,0.62 c 5.0782,1.76 14.6094,-2.05 14.1797,4.57 l -2.0898,0.59 c 6.4844,11.09 11.0937,-11.8 15.7812,-4.5 l 1.4844,-6.91 c 2.9492,2.42 6.3281,-1.76 8.5741,-4.59 -0.195,3.15 5.391,0.84 3.203,4.04 -0.527,0.18 -0.996,0.47 -1.465,0.9 l 1.094,-0.31 c 0.176,-0.23 0.235,-0.39 0.371,-0.59 3.028,-1.05 6.758,2.11 12.969,2.23 l -4.082,-0.98 c 6.758,-8.41 3.594,-7.54 10.234,-13.71 -7.265,-0.15 -18.73,0.98 -21.582,-2.58 1.621,-9.1 -8.1052,-3.1 -7.6169,-10.85 5.1949,-0.36 4.7659,-10 8.7309,-6.76 l -1.114,1.35 c 6.328,-1.78 1.7,4.98 9.395,-1.57 -6.231,0.69 -3.36,-12.05 -12.031,-6.35 l -0.45,7.7 c -9.316,-0.62 -14.6481,2.03 -18.2418,-6.76 2.168,-1.7 4.4531,-4.49 7.5195,-4.33 -4.9023,-4.03 -7.4219,-14.14 -11.8945,-8.52 l 1.1328,-1.41 c -7.0898,-2.3 -10.4102,-16.64 -19.1211,-8.67 -5.3906,3.71 -7.8125,9.87 -4.8828,12.27 l 0.2734,-4.42 c 6.1524,0.39 12.2657,1.92 18.5352,1.22 -3.1641,0.87 -6.582,6.23 -8.6914,6.87 1.9922,1.56 4.4531,11.76 10.8008,8.81 l -4.7852,-6.23 c 2.1094,-0.59 6.4063,-2.95 8.3984,-1.29 0.7032,5.23 -0.3906,5.51 -3.9062,11.93 l 2.1484,-0.6 -2.5781,8.32 c -4.0625,-0.98 -7.3047,1.01 -10.4101,1.89 -1.6993,-5.99 -3.5547,-9.78 -4.3946,-12.79 l -0.1172,2.19 c -19.1406,8.75 -26.8359,0.15 -44.2578,-0.24 l 5.4688,-5.9 c -3.0469,-0.23 -9.0625,-2.85 -12.9297,-7.12 1.0937,0.87 0.4687,1.81 -0.7227,2.69 L 0,1118.24 l 164.395,-94.9 c 7.968,1.03 9.16,6.6 20.175,8.03 2.969,-9.85 -0.527,-13.89 -6.035,-16.22 L 1044.47,515.148 1647.44,1559.64 1345.8,1733.78"
         style="fill:#ed1c24;fill-opacity:1;fill-rule:nonzero;stroke:none"
         id="path70" /><path
         d="m 1109.45,1865.42 c -0.52,-2.1 12.23,-13.49 11.49,-18.91 0,0 -1.21,-2.64 -2.42,-5.33 -1.16,-2.72 -2.52,-5.23 -2.52,-5.23 7.3,6.03 5.58,-4.69 11.68,-2.78 3.51,3.11 -3.91,2.36 -5.3,3.5 11.06,-4.83 10.88,12.6 15.55,11.33 l 8.53,-3.59 c 1.2,-8.75 -9.25,-6.19 -15.27,-8.13 l -0.51,-6.51 c 15.67,-1.69 9.11,-1.43 25.61,-2.11 -3.07,3.4 -6.64,4.67 -9.43,6.94 6.6,1.24 6.5,5.84 5.5,10.86 l -37.05,21.42 -5.86,-1.46"
         style="fill:#ed1c24;fill-opacity:1;fill-rule:nonzero;stroke:none"
         id="path72" /><path
         d="m 513.633,2007.86 -1.348,-2.29 c 0.742,0.67 1.25,1.48 1.348,2.29"
         style="fill:#ed1c24;fill-opacity:1;fill-rule:nonzero;stroke:none"
         id="path74" /><path
         d="m 1057.64,1885.25 c 3.16,3.7 10.02,3.88 13.34,7.2 l -12.46,7.23 c 7.42,-8.27 -8.31,-5.75 -0.88,-14.43"
         style="fill:#ed1c24;fill-opacity:1;fill-rule:nonzero;stroke:none"
         id="path76" /><path
         d="m 510.781,1749.71 c 0.157,-0.99 1.094,-1.2 1.875,-1.44 l 1.387,2.39 c -1.602,-0.21 -2.949,-0.57 -3.262,-0.95"
         style="fill:#ed1c24;fill-opacity:1;fill-rule:nonzero;stroke:none"
         id="path78" /><path
         d="m 441.992,1602.79 c -0.898,-1.37 -0.117,-2.79 1.113,-4.16 l -1.113,4.16"
         style="fill:#ed1c24;fill-opacity:1;fill-rule:nonzero;stroke:none"
         id="path80" /><path
         d="m 642.695,1713.2 5.059,-2.92 c 0.059,0.8 -2.832,2.44 -5.059,2.92"
         style="fill:#ed1c24;fill-opacity:1;fill-rule:nonzero;stroke:none"
         id="path82" /><path
         d="m 555.313,1179.96 c -1.836,-1.86 -7.051,-1.6 -8.282,-3.56 6.66,-2.42 -1.718,-4.1 5.02,-7.61 3.359,-1.78 6.172,2.09 2.793,3.86 0.898,-1.25 1.894,-1.64 2.89,-1.71 l -2.421,9.02"
         style="fill:#ed1c24;fill-opacity:1;fill-rule:nonzero;stroke:none"
         id="path84" /><path
         d="m 1047.79,1664.47 4.3,1.12 -3.28,1.13 c -0.43,-0.7 -0.68,-1.5 -1.02,-2.25"
         style="fill:#ed1c24;fill-opacity:1;fill-rule:nonzero;stroke:none"
         id="path86" /><path
         d="m 983.984,1786.92 -3.554,5.02 c -4.258,-0.94 0.898,-3.38 3.554,-5.02"
         style="fill:#ed1c24;fill-opacity:1;fill-rule:nonzero;stroke:none"
         id="path88" /><path
         d="m 560.156,1161.91 -1.093,4.07 c -0.469,-1.37 -0.508,-3.01 0.078,-4.11 0.39,-0.04 0.664,0.04 1.015,0.04"
         style="fill:#ed1c24;fill-opacity:1;fill-rule:nonzero;stroke:none"
         id="path90" /></g></g></svg>
